<mxfile host="Electron" modified="2023-12-02T08:41:59.167Z" agent="Mozilla/5.0 (Macintosh; Intel Mac OS X 10_15_7) AppleWebKit/537.36 (KHTML, like Gecko) draw.io/22.1.2 Chrome/114.0.5735.289 Electron/25.9.4 Safari/537.36" etag="srTTDsSO7RoUek-oAOEV" version="22.1.2" type="device">
  <diagram name="Page-1" id="j9QNkYJWvCD5YhS5TfmQ">
    <mxGraphModel dx="3238" dy="2608" grid="1" gridSize="10" guides="1" tooltips="1" connect="1" arrows="1" fold="1" page="1" pageScale="1" pageWidth="850" pageHeight="1100" math="0" shadow="0">
      <root>
        <mxCell id="0" />
        <mxCell id="1" parent="0" />
        <mxCell id="76S1xJXIV5P6KouuZEVB-15" style="edgeStyle=orthogonalEdgeStyle;rounded=0;orthogonalLoop=1;jettySize=auto;html=1;entryX=1;entryY=0.5;entryDx=0;entryDy=0;" edge="1" parent="1" source="B3mEiUVaiHjRlC54vuDs-93" target="B3mEiUVaiHjRlC54vuDs-66">
          <mxGeometry relative="1" as="geometry">
            <Array as="points">
              <mxPoint x="1231" y="370" />
              <mxPoint x="1231" y="300" />
            </Array>
          </mxGeometry>
        </mxCell>
        <mxCell id="B3mEiUVaiHjRlC54vuDs-93" value="" style="rounded=1;whiteSpace=wrap;html=1;fillColor=#e1d5e7;strokeColor=none;" parent="1" vertex="1">
          <mxGeometry x="1290" y="262" width="500" height="540" as="geometry" />
        </mxCell>
        <mxCell id="B3mEiUVaiHjRlC54vuDs-113" style="edgeStyle=orthogonalEdgeStyle;rounded=0;orthogonalLoop=1;jettySize=auto;html=1;" parent="1" source="B3mEiUVaiHjRlC54vuDs-79" target="B3mEiUVaiHjRlC54vuDs-93" edge="1">
          <mxGeometry relative="1" as="geometry">
            <Array as="points">
              <mxPoint x="849" y="140" />
              <mxPoint x="1540" y="140" />
            </Array>
          </mxGeometry>
        </mxCell>
        <mxCell id="B3mEiUVaiHjRlC54vuDs-79" value="" style="rounded=1;whiteSpace=wrap;html=1;fillColor=#cce5ff;strokeColor=none;gradientColor=none;gradientDirection=radial;fontColor=#000000;" parent="1" vertex="1">
          <mxGeometry x="794" y="-320" width="110" height="350" as="geometry" />
        </mxCell>
        <mxCell id="B3mEiUVaiHjRlC54vuDs-40" value="" style="rounded=1;whiteSpace=wrap;html=1;fillColor=#f5f5f5;fontColor=#333333;strokeColor=none;" parent="1" vertex="1">
          <mxGeometry x="-60" y="333.5" width="910" height="605" as="geometry" />
        </mxCell>
        <mxCell id="B3mEiUVaiHjRlC54vuDs-43" value="" style="rounded=1;whiteSpace=wrap;html=1;fillColor=#e1d5e7;strokeColor=none;" parent="1" vertex="1">
          <mxGeometry x="210" y="362" width="500" height="540" as="geometry" />
        </mxCell>
        <mxCell id="B3mEiUVaiHjRlC54vuDs-34" value="" style="rounded=1;whiteSpace=wrap;html=1;fillColor=#d5e8d4;strokeColor=none;" parent="1" vertex="1">
          <mxGeometry x="280" y="784" width="350" height="100" as="geometry" />
        </mxCell>
        <mxCell id="B3mEiUVaiHjRlC54vuDs-21" value="" style="rounded=1;whiteSpace=wrap;html=1;fillColor=#fff2cc;strokeColor=none;" parent="1" vertex="1">
          <mxGeometry x="270" y="400" width="110" height="300" as="geometry" />
        </mxCell>
        <mxCell id="B3mEiUVaiHjRlC54vuDs-14" value="" style="rounded=1;whiteSpace=wrap;html=1;fillColor=#cce5ff;strokeColor=none;gradientColor=none;gradientDirection=radial;fontColor=#000000;" parent="1" vertex="1">
          <mxGeometry x="550" y="395" width="110" height="345" as="geometry" />
        </mxCell>
        <mxCell id="B3mEiUVaiHjRlC54vuDs-1" value="" style="shape=image;verticalLabelPosition=bottom;labelBackgroundColor=default;verticalAlign=top;aspect=fixed;imageAspect=0;image=https://static-00.iconduck.com/assets.00/proxmox-icon-512x512-wdyg8x2z.png;" parent="1" vertex="1">
          <mxGeometry x="-80" y="322" width="122" height="122" as="geometry" />
        </mxCell>
        <mxCell id="B3mEiUVaiHjRlC54vuDs-3" value="" style="verticalLabelPosition=bottom;html=1;verticalAlign=top;align=center;strokeColor=none;fillColor=#00BEF2;shape=mxgraph.azure.virtual_machine;fontColor=#000000;" parent="1" vertex="1">
          <mxGeometry x="343" y="678" width="50" height="40" as="geometry" />
        </mxCell>
        <mxCell id="B3mEiUVaiHjRlC54vuDs-4" value="tendermint.roomit.xyz" style="text;html=1;align=center;verticalAlign=middle;resizable=0;points=[];autosize=1;strokeColor=none;fillColor=none;fontColor=#000000;fontStyle=0" parent="1" vertex="1">
          <mxGeometry x="266" y="714" width="140" height="30" as="geometry" />
        </mxCell>
        <mxCell id="B3mEiUVaiHjRlC54vuDs-5" value="planq" style="verticalLabelPosition=bottom;html=1;verticalAlign=top;align=center;strokeColor=none;fillColor=#00BEF2;shape=mxgraph.azure.virtual_machine;fontColor=#000000;" parent="1" vertex="1">
          <mxGeometry x="580" y="410" width="50" height="40" as="geometry" />
        </mxCell>
        <mxCell id="B3mEiUVaiHjRlC54vuDs-6" value="band" style="verticalLabelPosition=bottom;html=1;verticalAlign=top;align=center;strokeColor=none;fillColor=#00BEF2;shape=mxgraph.azure.virtual_machine;fontColor=#000000;" parent="1" vertex="1">
          <mxGeometry x="580" y="490" width="50" height="40" as="geometry" />
        </mxCell>
        <mxCell id="B3mEiUVaiHjRlC54vuDs-7" value="source" style="verticalLabelPosition=bottom;html=1;verticalAlign=top;align=center;strokeColor=none;fillColor=#00BEF2;shape=mxgraph.azure.virtual_machine;fontColor=#000000;" parent="1" vertex="1">
          <mxGeometry x="580" y="560" width="50" height="40" as="geometry" />
        </mxCell>
        <mxCell id="B3mEiUVaiHjRlC54vuDs-8" value="gitopia" style="verticalLabelPosition=bottom;html=1;verticalAlign=top;align=center;strokeColor=none;fillColor=#00BEF2;shape=mxgraph.azure.virtual_machine;fontColor=#000000;" parent="1" vertex="1">
          <mxGeometry x="580" y="638" width="50" height="40" as="geometry" />
        </mxCell>
        <mxCell id="B3mEiUVaiHjRlC54vuDs-9" value="tmkms" style="sketch=0;points=[[0,0,0],[0.25,0,0],[0.5,0,0],[0.75,0,0],[1,0,0],[0,1,0],[0.25,1,0],[0.5,1,0],[0.75,1,0],[1,1,0],[0,0.25,0],[0,0.5,0],[0,0.75,0],[1,0.25,0],[1,0.5,0],[1,0.75,0]];outlineConnect=0;fontColor=#000000;fillColor=#DD344C;strokeColor=#ffffff;dashed=0;verticalLabelPosition=bottom;verticalAlign=top;align=center;html=1;fontSize=12;fontStyle=0;aspect=fixed;shape=mxgraph.aws4.resourceIcon;resIcon=mxgraph.aws4.signer;" parent="1" vertex="1">
          <mxGeometry x="299" y="510" width="44" height="44" as="geometry" />
        </mxCell>
        <mxCell id="B3mEiUVaiHjRlC54vuDs-10" style="edgeStyle=orthogonalEdgeStyle;rounded=0;orthogonalLoop=1;jettySize=auto;html=1;entryX=0;entryY=0.5;entryDx=0;entryDy=0;entryPerimeter=0;fontColor=#000000;" parent="1" source="B3mEiUVaiHjRlC54vuDs-9" target="B3mEiUVaiHjRlC54vuDs-5" edge="1">
          <mxGeometry relative="1" as="geometry">
            <Array as="points">
              <mxPoint x="462" y="532" />
              <mxPoint x="462" y="430" />
              <mxPoint x="580" y="430" />
            </Array>
          </mxGeometry>
        </mxCell>
        <mxCell id="B3mEiUVaiHjRlC54vuDs-11" style="edgeStyle=orthogonalEdgeStyle;rounded=0;orthogonalLoop=1;jettySize=auto;html=1;entryX=0;entryY=0.5;entryDx=0;entryDy=0;entryPerimeter=0;fontColor=#000000;" parent="1" source="B3mEiUVaiHjRlC54vuDs-9" target="B3mEiUVaiHjRlC54vuDs-6" edge="1">
          <mxGeometry relative="1" as="geometry" />
        </mxCell>
        <mxCell id="B3mEiUVaiHjRlC54vuDs-12" style="edgeStyle=orthogonalEdgeStyle;rounded=0;orthogonalLoop=1;jettySize=auto;html=1;entryX=0;entryY=0.5;entryDx=0;entryDy=0;entryPerimeter=0;fontColor=#000000;" parent="1" source="B3mEiUVaiHjRlC54vuDs-9" target="B3mEiUVaiHjRlC54vuDs-7" edge="1">
          <mxGeometry relative="1" as="geometry" />
        </mxCell>
        <mxCell id="B3mEiUVaiHjRlC54vuDs-13" style="edgeStyle=orthogonalEdgeStyle;rounded=0;orthogonalLoop=1;jettySize=auto;html=1;entryX=0;entryY=0.5;entryDx=0;entryDy=0;entryPerimeter=0;fontColor=#000000;" parent="1" source="B3mEiUVaiHjRlC54vuDs-9" target="B3mEiUVaiHjRlC54vuDs-8" edge="1">
          <mxGeometry relative="1" as="geometry" />
        </mxCell>
        <mxCell id="B3mEiUVaiHjRlC54vuDs-17" style="edgeStyle=orthogonalEdgeStyle;rounded=0;orthogonalLoop=1;jettySize=auto;html=1;endArrow=none;endFill=0;fontColor=#000000;" parent="1" source="B3mEiUVaiHjRlC54vuDs-15" edge="1">
          <mxGeometry relative="1" as="geometry">
            <mxPoint x="460" y="450" as="targetPoint" />
            <Array as="points">
              <mxPoint x="430" y="450" />
              <mxPoint x="430" y="450" />
            </Array>
          </mxGeometry>
        </mxCell>
        <mxCell id="B3mEiUVaiHjRlC54vuDs-15" value="ibc" style="sketch=0;outlineConnect=0;fontColor=#000000;gradientColor=none;fillColor=#8C4FFF;strokeColor=none;dashed=0;verticalLabelPosition=bottom;verticalAlign=top;align=center;html=1;fontSize=12;fontStyle=0;aspect=fixed;pointerEvents=1;shape=mxgraph.aws4.msk_amazon_msk_connect;" parent="1" vertex="1">
          <mxGeometry x="298.43" y="428" width="44.57" height="44" as="geometry" />
        </mxCell>
        <mxCell id="B3mEiUVaiHjRlC54vuDs-16" value="&lt;b&gt;TENDERMINT BASED&lt;/b&gt;" style="text;html=1;strokeColor=none;fillColor=none;align=center;verticalAlign=middle;whiteSpace=wrap;rounded=0;fontColor=#000000;" parent="1" vertex="1">
          <mxGeometry x="535" y="368" width="140" height="30" as="geometry" />
        </mxCell>
        <mxCell id="B3mEiUVaiHjRlC54vuDs-20" style="edgeStyle=orthogonalEdgeStyle;rounded=0;orthogonalLoop=1;jettySize=auto;html=1;endArrow=none;endFill=0;" parent="1" source="B3mEiUVaiHjRlC54vuDs-18" edge="1">
          <mxGeometry relative="1" as="geometry">
            <mxPoint x="460" y="615" as="targetPoint" />
            <Array as="points">
              <mxPoint x="430" y="615" />
              <mxPoint x="430" y="615" />
            </Array>
          </mxGeometry>
        </mxCell>
        <mxCell id="B3mEiUVaiHjRlC54vuDs-18" value="exporter" style="image;aspect=fixed;perimeter=ellipsePerimeter;html=1;align=center;shadow=0;dashed=0;fontColor=#000000;labelBackgroundColor=default;fontSize=12;spacingTop=3;image=img/lib/ibm/management/monitoring_metrics.svg;" parent="1" vertex="1">
          <mxGeometry x="295.72" y="590" width="50" height="50" as="geometry" />
        </mxCell>
        <mxCell id="B3mEiUVaiHjRlC54vuDs-30" value="mysterium.roomit.xyz" style="verticalLabelPosition=bottom;html=1;verticalAlign=top;align=center;strokeColor=none;fillColor=#00BEF2;shape=mxgraph.azure.virtual_machine;fontColor=#000000;" parent="1" vertex="1">
          <mxGeometry x="506" y="804" width="50" height="40" as="geometry" />
        </mxCell>
        <mxCell id="B3mEiUVaiHjRlC54vuDs-31" value="mixnode.nym.roomit.xyz" style="verticalLabelPosition=bottom;html=1;verticalAlign=top;align=center;strokeColor=none;fillColor=#00BEF2;shape=mxgraph.azure.virtual_machine;fontColor=#000000;" parent="1" vertex="1">
          <mxGeometry x="360" y="804" width="50" height="40" as="geometry" />
        </mxCell>
        <mxCell id="B3mEiUVaiHjRlC54vuDs-35" value="&lt;b&gt;TENDERMINT TOOLS&lt;/b&gt;" style="text;html=1;strokeColor=none;fillColor=none;align=center;verticalAlign=middle;whiteSpace=wrap;rounded=0;fontColor=#000000;" parent="1" vertex="1">
          <mxGeometry x="255" y="370" width="140" height="30" as="geometry" />
        </mxCell>
        <mxCell id="B3mEiUVaiHjRlC54vuDs-36" value="&lt;b&gt;OTHER BLOCKCHAINS&lt;/b&gt;" style="text;html=1;strokeColor=none;fillColor=none;align=center;verticalAlign=middle;whiteSpace=wrap;rounded=0;fontColor=#000000;" parent="1" vertex="1">
          <mxGeometry x="280" y="760" width="140" height="30" as="geometry" />
        </mxCell>
        <mxCell id="B3mEiUVaiHjRlC54vuDs-51" style="edgeStyle=orthogonalEdgeStyle;rounded=0;orthogonalLoop=1;jettySize=auto;html=1;" parent="1" source="B3mEiUVaiHjRlC54vuDs-42" target="B3mEiUVaiHjRlC54vuDs-47" edge="1">
          <mxGeometry relative="1" as="geometry">
            <mxPoint x="5" y="490" as="targetPoint" />
          </mxGeometry>
        </mxCell>
        <mxCell id="B3mEiUVaiHjRlC54vuDs-53" value="snat" style="edgeLabel;html=1;align=center;verticalAlign=middle;resizable=0;points=[];" parent="B3mEiUVaiHjRlC54vuDs-51" vertex="1" connectable="0">
          <mxGeometry x="-0.2767" y="1" relative="1" as="geometry">
            <mxPoint x="14" y="-1" as="offset" />
          </mxGeometry>
        </mxCell>
        <mxCell id="B3mEiUVaiHjRlC54vuDs-42" value="opnsense.roomit.xyz" style="verticalLabelPosition=bottom;html=1;verticalAlign=top;align=center;strokeColor=none;fillColor=#00BEF2;shape=mxgraph.azure.virtual_machine;fontColor=#000000;" parent="1" vertex="1">
          <mxGeometry x="10" y="590" width="50" height="40" as="geometry" />
        </mxCell>
        <mxCell id="B3mEiUVaiHjRlC54vuDs-44" value="" style="image;sketch=0;aspect=fixed;html=1;points=[];align=center;fontSize=12;image=img/lib/mscae/NetworkInterfaceCard.svg;" parent="1" vertex="1">
          <mxGeometry x="50" y="580" width="26.4" height="30" as="geometry" />
        </mxCell>
        <mxCell id="B3mEiUVaiHjRlC54vuDs-45" style="edgeStyle=orthogonalEdgeStyle;rounded=0;orthogonalLoop=1;jettySize=auto;html=1;entryX=0.982;entryY=0.539;entryDx=0;entryDy=0;entryPerimeter=0;startArrow=classic;startFill=1;" parent="1" source="B3mEiUVaiHjRlC54vuDs-43" target="B3mEiUVaiHjRlC54vuDs-44" edge="1">
          <mxGeometry relative="1" as="geometry" />
        </mxCell>
        <mxCell id="B3mEiUVaiHjRlC54vuDs-46" value="&lt;b&gt;APPLICATIONS&lt;/b&gt;" style="text;html=1;strokeColor=none;fillColor=none;align=center;verticalAlign=middle;whiteSpace=wrap;rounded=0;fontColor=#000000;" parent="1" vertex="1">
          <mxGeometry x="240" y="902" width="140" height="30" as="geometry" />
        </mxCell>
        <mxCell id="B3mEiUVaiHjRlC54vuDs-47" value="" style="image;sketch=0;aspect=fixed;html=1;points=[];align=center;fontSize=12;image=img/lib/mscae/NetworkInterfaceCard.svg;" parent="1" vertex="1">
          <mxGeometry x="-16.4" y="435" width="26.4" height="30" as="geometry" />
        </mxCell>
        <mxCell id="B3mEiUVaiHjRlC54vuDs-48" value="" style="image;sketch=0;aspect=fixed;html=1;points=[];align=center;fontSize=12;image=img/lib/mscae/NetworkInterfaceCard.svg;" parent="1" vertex="1">
          <mxGeometry x="21.799999999999997" y="332" width="26.4" height="30" as="geometry" />
        </mxCell>
        <mxCell id="B3mEiUVaiHjRlC54vuDs-49" value="&lt;sub&gt;lan&lt;/sub&gt;" style="text;html=1;strokeColor=none;fillColor=none;align=center;verticalAlign=middle;whiteSpace=wrap;rounded=0;fontStyle=1" parent="1" vertex="1">
          <mxGeometry x="50" y="554" width="60" height="30" as="geometry" />
        </mxCell>
        <mxCell id="B3mEiUVaiHjRlC54vuDs-52" value="&lt;sub&gt;wan&lt;/sub&gt;" style="text;html=1;strokeColor=none;fillColor=none;align=center;verticalAlign=middle;whiteSpace=wrap;rounded=0;fontStyle=1" parent="1" vertex="1">
          <mxGeometry x="-11.799999999999997" y="450" width="60" height="30" as="geometry" />
        </mxCell>
        <mxCell id="B3mEiUVaiHjRlC54vuDs-54" value="&lt;sub&gt;wan&lt;/sub&gt;" style="text;html=1;strokeColor=none;fillColor=none;align=center;verticalAlign=middle;whiteSpace=wrap;rounded=0;fontStyle=1" parent="1" vertex="1">
          <mxGeometry x="30.000000000000004" y="350" width="60" height="30" as="geometry" />
        </mxCell>
        <mxCell id="B3mEiUVaiHjRlC54vuDs-55" value="&lt;b&gt;&lt;font style=&quot;font-size: 17px;&quot;&gt;PROXMOX PVE-01&lt;/font&gt;&lt;/b&gt;" style="text;html=1;strokeColor=none;fillColor=none;align=center;verticalAlign=middle;whiteSpace=wrap;rounded=0;fontColor=#000000;" parent="1" vertex="1">
          <mxGeometry x="600" y="303.5" width="220" height="30" as="geometry" />
        </mxCell>
        <mxCell id="B3mEiUVaiHjRlC54vuDs-56" value="" style="image;aspect=fixed;perimeter=ellipsePerimeter;html=1;align=center;shadow=0;dashed=0;spacingTop=3;image=img/lib/active_directory/internet_cloud.svg;" parent="1" vertex="1">
          <mxGeometry x="-114.31" y="50" width="222.22" height="140" as="geometry" />
        </mxCell>
        <mxCell id="B3mEiUVaiHjRlC54vuDs-57" style="edgeStyle=orthogonalEdgeStyle;rounded=0;orthogonalLoop=1;jettySize=auto;html=1;entryX=0.428;entryY=1;entryDx=0;entryDy=0;entryPerimeter=0;startArrow=classic;startFill=1;" parent="1" source="B3mEiUVaiHjRlC54vuDs-1" target="B3mEiUVaiHjRlC54vuDs-56" edge="1">
          <mxGeometry relative="1" as="geometry" />
        </mxCell>
        <mxCell id="76S1xJXIV5P6KouuZEVB-1" value="only p2p" style="edgeLabel;html=1;align=center;verticalAlign=middle;resizable=0;points=[];fontStyle=1" vertex="1" connectable="0" parent="B3mEiUVaiHjRlC54vuDs-57">
          <mxGeometry x="0.0318" relative="1" as="geometry">
            <mxPoint x="30" as="offset" />
          </mxGeometry>
        </mxCell>
        <mxCell id="B3mEiUVaiHjRlC54vuDs-58" value="&lt;b&gt;INTERNET&lt;/b&gt;" style="text;html=1;strokeColor=none;fillColor=none;align=center;verticalAlign=middle;whiteSpace=wrap;rounded=0;fontColor=#000000;" parent="1" vertex="1">
          <mxGeometry x="-80" y="105" width="140" height="30" as="geometry" />
        </mxCell>
        <mxCell id="B3mEiUVaiHjRlC54vuDs-70" value="" style="verticalLabelPosition=bottom;sketch=0;html=1;fillColor=#A153A0;strokeColor=#ffffff;verticalAlign=top;align=center;points=[[0,0.5,0],[0.125,0.25,0],[0.25,0,0],[0.5,0,0],[0.75,0,0],[0.875,0.25,0],[1,0.5,0],[0.875,0.75,0],[0.75,1,0],[0.5,1,0],[0.125,0.75,0]];pointerEvents=1;shape=mxgraph.cisco_safe.compositeIcon;bgIcon=mxgraph.cisco_safe.design.blank_device;resIcon=mxgraph.cisco_safe.design.secure_dns;" parent="1" vertex="1">
          <mxGeometry x="-8" y="576.25" width="38" height="37.5" as="geometry" />
        </mxCell>
        <mxCell id="76S1xJXIV5P6KouuZEVB-16" style="edgeStyle=orthogonalEdgeStyle;rounded=0;orthogonalLoop=1;jettySize=auto;html=1;" edge="1" parent="1" source="B3mEiUVaiHjRlC54vuDs-71" target="B3mEiUVaiHjRlC54vuDs-66">
          <mxGeometry relative="1" as="geometry" />
        </mxCell>
        <mxCell id="B3mEiUVaiHjRlC54vuDs-71" value="" style="shape=image;verticalLabelPosition=bottom;labelBackgroundColor=default;verticalAlign=top;aspect=fixed;imageAspect=0;image=https://static-00.iconduck.com/assets.00/hetzner-icon-1024x1024-fu4wjwkl.png;" parent="1" vertex="1">
          <mxGeometry x="740" y="338" width="134" height="134" as="geometry" />
        </mxCell>
        <mxCell id="76S1xJXIV5P6KouuZEVB-17" style="edgeStyle=orthogonalEdgeStyle;rounded=0;orthogonalLoop=1;jettySize=auto;html=1;" edge="1" parent="1" source="B3mEiUVaiHjRlC54vuDs-75" target="B3mEiUVaiHjRlC54vuDs-66">
          <mxGeometry relative="1" as="geometry">
            <Array as="points">
              <mxPoint x="906" y="90" />
              <mxPoint x="1061" y="90" />
            </Array>
          </mxGeometry>
        </mxCell>
        <mxCell id="B3mEiUVaiHjRlC54vuDs-75" value="network.roomit.xyz" style="verticalLabelPosition=bottom;html=1;verticalAlign=top;align=center;strokeColor=none;fillColor=#00BEF2;shape=mxgraph.azure.virtual_machine;fontColor=#000000;" parent="1" vertex="1">
          <mxGeometry x="881.19" width="50" height="40" as="geometry" />
        </mxCell>
        <mxCell id="B3mEiUVaiHjRlC54vuDs-80" value="" style="image;aspect=fixed;html=1;points=[];align=center;fontSize=12;image=img/lib/azure2/other/Grafana.svg;" parent="1" vertex="1">
          <mxGeometry x="816.8" y="-300" width="64.39" height="50" as="geometry" />
        </mxCell>
        <mxCell id="B3mEiUVaiHjRlC54vuDs-86" style="edgeStyle=orthogonalEdgeStyle;rounded=0;orthogonalLoop=1;jettySize=auto;html=1;startArrow=classic;startFill=1;exitX=0.017;exitY=0.54;exitDx=0;exitDy=0;exitPerimeter=0;" parent="1" edge="1" source="B3mEiUVaiHjRlC54vuDs-79">
          <mxGeometry relative="1" as="geometry">
            <mxPoint x="790" y="-285" as="sourcePoint" />
            <mxPoint x="460" y="330" as="targetPoint" />
            <Array as="points">
              <mxPoint x="461" y="-131" />
              <mxPoint x="461" y="330" />
            </Array>
          </mxGeometry>
        </mxCell>
        <mxCell id="B3mEiUVaiHjRlC54vuDs-81" value="" style="sketch=0;pointerEvents=1;shadow=0;dashed=0;html=1;strokeColor=none;fillColor=#DF8C42;labelPosition=center;verticalLabelPosition=bottom;verticalAlign=top;align=center;outlineConnect=0;shape=mxgraph.veeam2.wireguard;" parent="1" vertex="1">
          <mxGeometry x="816.8" y="-220" width="66" height="50" as="geometry" />
        </mxCell>
        <mxCell id="B3mEiUVaiHjRlC54vuDs-84" value="" style="shape=image;aspect=fixed;image=data:image/png,iVBORw0KGgoAAAANSUhEUgAAA4QAAAKNCAYAAAB4NqVHAABuDElEQVR42uzdh3cc13347d8fmji2Y7/uiR3HTmLZcbqTuEiyitUsq1mNVCFFUpQoUexNpEiKVWJDb1sBEIBY77t3yVUgimUX2HJn5uE532P72JYeYYC594OZnfl/oct/6vV6V4ePj4+Pj4+Pj4+Pj4+vN77/54Dw8fHx8fHx8fHx8fEJQgeEj4+Pj4+Pj4+Pj49PEDogfHx8fHx8fHx8fHx8gtAB4ePj4+Pj4+Pj4+PjE4QOCB8fHx8fHx8fHx8fnyB0QPj4+Pj4+Pj4+Pj4+AShA8LHx8fHx8fHx8fHxycIHRA+Pj4+Pj4+Pj4+Pj5B6IDw8fHx8fHx8fHx8fEJQgeEj4+Pj4+Pj4+Pj49PEDogfHx8fHx8fHx8fHx8gtAB4ePj4+Pj4+Pj4+PjE4QOCB8fHx8fHx8fHx8fnyD0DcPHx8fHx8fHx8fHxycIfcPw8fHx8fHx8fHx8fEJQj4+Pj4+Pj4+Pj4+Pj5ByMfHx8fHx8fHx8fHxycI+fj4+Pj4+Pj4+Pj4+AQhHx8fHx8fHx8fHx8fX8dB6AvIx8fHx8fHx8fHx8dXTJ8g5OPj4+Pj4+Pj4+PjE4QOCB8fHx8fHx8fHx8fnyB0QPj4+Pj4+Pj4+Pj4+AShA8LHx8fHx8fHx8fHxycIHRA+Pj4+Pj4+Pj4+Pj5B6IDw8fHx8fHx8fHx8fEJQgeEj4+Pj4+Pj4+Pj49PEDogfHx8fHx8fHx8fHx8gtAB4ePj4+Pj4+Pj4+PjE4QOCB8fHx8fHx8fHx8fnyB0QPj4+Pj4+Pj4+Pj4+AShA8LHx8fHx8fHx8fHxycIHRA+Pj4+Pj4+Pj4+Pj5B6IDw8fHx8fHx8fHx8fEJQt8wfHx8fHx8fHx8fHx8gpCPj4+Pj4+Pj4+Pj49PEPLx8fHx8fHx8fHx8fEJQj4+Pj4+Pj4+Pj4+Pj5ByMfHx8fHx8fHx8fHx9d5EPoC8vHx8fHx8fHx8fHxFdMnCPn4+Pj4kvbNzs7e8d8v/8+3ztWrV+84V65cue20/vtr1659Ya5fv/6Fv3atVnN8+fj4+PgEoQPCx8fHx9fJnxhWMbBuF2fLIy/O3NzcF/5zp/PZZ591de7097lTtC7/1zi3RqTvPz4+Pj4+QeiA8PHx8eXG17qatjzyLl++HC5dutSclQZX6kHY7sTAXf71W35VsnUVMo7vPz4+Pj4+Qegbho+Pjy9pXwycVuylElypB2G7vlZAx6/v8ltY7xWLfj74+Pj4+AQhHx8fH19XfLd+Pu92t29mNbiy7mvFYry6uPzKop8PPj4+Pj5ByMfHx8fXlm/559lu/axb0YMr675uPfjGzy8fHx+fIHRA+Pj4+HLmW2n8Ca7s+m73oBs/H3x8fHx8gpCPj48vx754K2HroS6Ci+/WQPTzy8fHx8cnCPn4+Phy4oufH2s92fNuD3kRXHx3u4J4ayz6+eXj4+MThA4IHx8fX4K+1qsdll/9E1x83XK1Xo/ReiWGn18+Pj4+QeiA8PHx8Q3Q17oC2GkACi6+bvnileflTzX188vHx8cnCB0QPj4+vh764ob8XreAChq+Qfni92Xr/Yh+fvn4+PgEoQPCx8fHt0rf8s9wtd75J2j4suBrvRfxXnHo/MLHx8cnCB0QPj4+vrvEoKDhy7qvFYfx6vatt5Y6v/Dx8fEJQgeEj4+v0L5bn+QoaPjy7lv+2UPnFz4+Pj5B6IDw8fEV1td6eqNg4Cuqz/mFj4+PTxA6IHx8fIXzCQY+vtv7Wj8jtVrN+YWPj49PEDogfHx82fbFz0t1KwQFA1/RfM4vfHx8fILQAeHj48ucL0Zg/GxU6/2AgoGPb3W+5b9Qcf7j4+Pj61MQ+gLy8fHxdefpoDb4fHzd88VftMR3HTr/8fHx8fXWJwj5+Pj4OgzAOz0cRjDw8fXG5zUWfHx8fIKQj4+PbyA+G3I+vrReYxGvGt76mV3nPz4+Pj5ByMfHx9c1X3zqoQ05H1+6vhiGzn98fHx8gpCPj4+vq77lD7awIefjy4bP+Y+Pj49PEPLx8fF1NQhtyPn4sutz/uPj4+MThHx8fHwd+WzI+fi819D5mY+PTxA6IHx8fAXxxYdSxM8g2ZDz8RXD5/zHx8fHJwj5+PgK7otPJWyFoA05H1/xfM7PfHx8fIKQj4+vgL4YgvEdZjbkfHx8rVvEnZ/5+Pj4BCEfH1/OfdeuXQuXL1+2Iefj42vryqHzMx8fnyB0QPj4+HLgi1cE7xWCNuR8fHy3XjV0fubj4xOEDggfH1+Gfa0QXP4ZQRtePj6+difeWu78zMfHJwgdED4+voz5VhKCNuR8fHx38sWHT8XzivMzHx+fIHRA+Pj4Eva1HhazkhC0Iefj47ubL55XYhg6P/Px8QlCB4SPjy8x32quCNrw8vHxdepb6a2k1g8+Pj5B6IDw8fF10Var1b70HkEbXj4+vn75Or1iaP3g4+MThA4IHx9fl302vHx8fIP0xV9IxVfaOD/z8fEJQgeEj4+vjz4bXj4+vpR88bb1ez14xvrBx8cnCB0QPj6+LoWgDS8fH1+KvruFofWDj48vM0HoC8jHx5eK714vlbdB5ePjS9HX+pyz9YOPjy+LPkHIx8eXhC8+sMGGl4+PL8s+6wcfH58gdED4+Pg69MWrgu0+OdSGl4+PL3Wf9YOPj08QOiB8fHxt+FbyYnkbXj4+viz44vkv3vVwrwfPWD/4+PgEoQPCx1c4X9wgrfR9gja8fHx8WfJ18poK6wcfH58gdED4+HLv6+T2UBtKPj6+vPji3RDWDz4+PkHogPDxFdrX6e2hNpR8fHx58sXz32puI7W+8fHxCUI+Pr5M+lZ7VdCGko+PL0++dl5qb/3g4+MThL5h+Phy4VvpZwVtKPn4+PLui3dNdBKG1jc+Pj5ByMfHlzmfDSUfHx/fZ125Wmh94+PjE4R8fHzJ+2q1WvNfbSj5+Pj42vv7tvvZQusbHx+fIOTj40vaZ0PJx8fHt3JfDMO7RaH1jY+PTxDy8fEJQhtKPj6+HPvudrXQ+sbHxycI+fj4kvTZUPLx8fF11xc/W2h94+PjE4S+Yfj4BKENJR8fX0F98WrhtWvXrG98fHyCkI+PL02fDRsfHx9f732tJ5Fa3/j4+AQhHx9fMj4bNj4+Pr7++eLVwvjXtL7x8fEJQj4+voH4Wq+TmJubs2Hj4+PjG5Bv+fnY+sbHxycI+fj4+uJrbUJs2Pj4+PgG77O+8fHxCUI+Pr6++2zY+Pj4+NLyWd/4+Pi6FoS+gHx8fLf64gMM4ruw4udWbAD5+Pj40vRduXLlri+zt77x8fG1M4KQj4/vC764uYhPtbNh4+Pj40vf13oKqfWNj49PEPLx8a164qZitVcFbdj4+Pj4+uuL5+1Oo9D6y8fHJwj5+Pi+NDZsfHx8fNn03foie+sbHx+fIOTj42tr4iPMbdj4+Pj4su+LURg//93O1ULrLx8fnyDk4+OzYePj4+PLoS9+rtD6y8fHJwj5+Pg6jkIbNj4+Pr58+O71uULrLx8fnyDk4yu4z4aNj4+PL/++O32u0PrLx8cnCPn4CuqLG4u5uTkbNj4+Pr4C+O70uULrLx8fnyDk4yugz4aNj4+Pr5i++BJ76y8fH58g5OMrqC8+SVQQ8vHx8RXbt/wl9tZfPj4+QcjHVzCfDREfHx8fX+thM9ZfPj4+QcjHVyCfDREfHx8f3/Kx/vLx8QlCPr6C+GyI+Pj4+PgEIR8fnyDk4yuY705PErUh4uPj4+Nb/sRp6y8fnyB0QPj4cuazIeLj4+Pja9dn/eXjE4QOCB9fDnztPknUhoiPj4+P79a/vvWXj08QOiB8fBn32RDx8fHx8a3WZ/3l4xOEDggfnyC0YePj4+MrcBCuJAztD/j4BKEDwsc3IJ8NER8fHx9ft33WXz6+AgWhLyAfXzZ9ccGOLxi2geHj4+Pj64UvvsDe+svHl3+fIOTjy3AQ2hDx8fHx8fXKF3/p2G4U2h/w8QlCB4SPr48+GyI+Pj4+vn74YhReu3bN+svHJwgdED6+VHw2RHx8fHx8/fS1E4X2B3x8gtAB4ePrg8+GiI+Pj49vUL67RaH9AR+fIHRA+Ph67LMh4uPj4+MbpO9uVwrtD/j4BKEDwsfXQ58NER8fHx9fKr7bRaH9AR+fIHRA+PgEIR8fHx9fQXy3RqH9AR+fIHRA+Ph64LMh4uPj4+NL1bc8Cu0P+PgEoQPCx9dlnw0HHx8fH1/qvlYU2h/w8QlCB4SPr0u+uFALQj4+Pj6+rPhiFNof8PEJQgeEj68Lvk5i0IaIj4+Pjy8FX3z6qP0BH58gdED4+LoUhDYcfHx8fHxZ9Nkf8PEJQgeEj28VPhsOPj4+Pj5BaH/AxycIfcPwFdBnw8HHx8fHlxef/QEfnyB0QPj42vTVajVByMfHx8eXS5/9AR+fIHRA+Pja8Nlw8PHx8fHlzbf8QWn2B3x8gtAB4eO7g8+Gg4+Pj48vz77WnTD2B3x8gtAB4eNb5rPh4OPj4+Mrgs/+gI9PEDogfHyCkI+Pj4+vwL7ln5m3P+DjSzAIfQH5+Prnu379ug0CHx8fH1/hfFevXrU/4ONL1CcI+fj66Lt06ZINBx/fCn0Lny2G+uJcmFmohqmFShi9OB2G5ifDubnxcHp2OJycHQrH6uc/nw9Lp8KB8sk7zuHyp5/PkcqZcLxyLpyqXAifVIbC+dpYGKpNhJHaZJiql0K5XnV8+fhW6eskCu1f+PgEoW8Yvtz5bDj4+L48MbTGalPhXHUsnJkbDR/Xz4UD1VNhe+VoeK90KGya2R/enN4d1kxuDy9PfjDQeaUxr0/vChtm9oV3SwfDtvKRsLd6Ihypnwmn54abcRpDtb40H5Y+W3J8+fhumfhL0Xaj0P6Fj08Q+obhy5XPhoOvqL76bD1M1KYbwTcajlXOhv3lk+GD0uFm6K2d2jHwyOvVvDq1Lbw1sze8X/oo7KuebF6xjFcyYzDOLy34/uMrtO/atWv2B3x8gtAB4SuG79YXz9tw8OXVV2t8n0/WZsKZ6kjzFswdpaPh7Ub0pXBlL8V5bWpneGf6QNhdOhY+boRyvEV1plb2/cdXGF/8TL39Cx+fIHRA+HLvs+Hgy6NvcWkplBaq4WTlfNhbPtEMG+HXnXmjEYpbZz4KB0unmnE9Uy/7/uPLpS/ePnq3KLR/4eMThL5h+HLhm5ubs+Hgy7yvtjgXzs2PNz/bt3nmQHh1Svz1c9ZN7wnbS0ebVxLjQ25qd3h1jZ8Pvqz5Ll++bP/CxycIHRA+VwhtOPhS85UXauGTuZGwu3q8+Tk4UZbWxM9evjdzKBwqnw4XauOhWq/5+eDLrO/KlSv2L3x8gtAB4cuXr/USXhsOvqz4Zhfnmw88iQ8/WS8AMzfxdt0t0webD66JD61p5wmnfj74UvLd7smj9i98fILQNwxfJn23PkTGhoMvRV8MhomLpfBR7dOwufRheGVym7DK0cRXY+yqHmu+xmNu6aKfD75M+G598qj9Cx+fIPQNw5c5371i0IaDb5C+eFthfJH7gdrpsG56t3AqyMR3J24uHQhHamdCabHm54Mvad/yh8zYv/DxCULfMHyZ9FnQ+VLyVWdr4XRlKGwrHQlrcvzOP3PvKLwx28LGmX3hSP1MmFmo+vnlS84Xnzxq/8LHJwh9w/Bl1nfrE0VtOPgG4avN1puvK4jvAVwrAsXgshi8dTaV9jevHJbvcOXQzy/fIHytJ4/av/DxCULfMHyZ81nQ+Qbpu1AdC7tKH4fXRKBpIwZvnXdKH4YTsxeaDxjy88s3aF988qj9Cx+fIPQNw5cZnwWdb1C+6Xq5+W66jdP7BJBZcQwunzVT28O28tHmU2drHZ7f/Pzyddtn/8LHJwh9w/Al77Og8/XbV2/Mp5XhsHXmcHh1ytNBTfdi8AvT+N56c3p3OFg+FSbrM35++fruW/4aJ/sXPj5ByMcnCG04Cu8r16vNq4HrpveIHtPzGIzz6uezPbw3czB8Uhlq/kLCzy9fv332L3x8gpCPTxDacBTWN1KbDLtLxzwl1AwoBr84G2b2hiOVT0OpXvHzy9c3X+u1TvYvfHyCkI8vGZ8Fna/XvuH5qfDu9IdCxyQTg8vn9emdYV/pRJiql/z88rlCyMcnCB0QvuL42nn5vAWdb6Wz9NlSGJqfbD7xUeSYvsbgZPsxGG8hbU18CM0HM4fDaG3S+YWvZ774Wif7Fz6+HgahLyAfX/u+q1ev2iDwdd1XrdfCsfj5wKndAsdkJga/MI2/Rnw66fjFkvMLX0988aX1169ft3/h4+uBTxDy8bXpiwtRXJAs6Hzd8tVn6+F45Vx4Y2qXuDGrCMIBx+At8375UBi7OOP8wtd1X+ul9fYvfHyCkI+v775uxKAFnW95CJ6snA/rPTHUZCYG2wvCNcsmhuHyK4bOL3zd8MWX1tu/8PEJQj6+vvpiDMbfSlrQ+VbrE4KmKDG4fLaXj4aphYrzC1/XfNeuXbN/4eMThHx8/fPF30Za0PlW6ztfHQtvzxwQMyaZJ4r2IwY/n8ntYWf546695N75pdi+lXye0P6Kj08Q8vGtaLp1q6gFvbi+idp02F46KmRMcWNw2bw2tTPsL58M5XrF+YVvVb64Ntu/8PEJQj6+nvriKya6GYMW9GL5ZmrlsKd0vLmpFjJGDH5x3pzcFY5VzzZvo3Z+4VupLz752/6Fj08Q8vH11GdB51uJL35OMF4JETFGDN59Ns3sD+eqY84vfCvyxV/atvt5QvsrPj5ByMfX8VjQ+TqdkepEeHtqv4AxYrCt2dGctY3ZNnMkTNfLzi98Hfva/Tyh/RUfnyDk4+soBAUhXyczv3QxHKidbm7aBYwRg53FYGvi+zg/Kp8OtTZvI3X+41v+fsJ7RaH9FR+fIOTja/tzg60YtKDztTPn5sbD69NeLG/SjcFXMhCDy2fTzL5woTru/MLX0dzr84T2V3x8gpCPr6MrhBZ0vntNfXEubK94eqgRg92Mwf+b7WFv+Xio1KvOf3xtz92uEtpf8fEJQj4+QcjXNV/zqqCHxhgx2KMY/L/ZOLOv+Q5P5z++1X6e0P6Kj08Q8vF1dKuoBZ3vdlNbnAvvlz4SLUYM9iEGl8+e21wtdP7ju91cuXLF/oqPTxDy8a3+yqAFnc9VQSMG04jB1myY2ReGahPOf3z3nNu9isL+io9PEPLxdRyDFnS+G08QXQj7qicFixGDA4zB5bOvfCJU6zXnP76Obh21v+LjE4R8fIKQr2PfxEI5vDWzV7AYMZhIDL52czbPHAjTCxXnP762bx21v+LjE4R8fB2FoAW92L6lxhyun2lutAWLEYNpxWBr3pjeFU7NDjn/8d3xKuHyW0ftr/j4BCEfnyDka8s3tzQftpYPixUjBhOOwRuzszm7KscaP7cXnf/47nrrqP0VH58g5OPrOAYt6MXzjV2cCW96ybwpaAy+msEYbE18PcXkxbLzH98dbx21v+Lju0sQ+gLyFdEXFwgLMN/yv/bh8qfNDbpYMWIwWzHYmtend4WPyp+E+mzd+Y/vC2N/xcd39xGEfIXzxdtH4m0kFky++NeM7zb7oOQWUSMGsxyDy2d76ciX3lno/Md3pxfW21/x8QlCvgL62o1BC3r+fRP1meatZkLFiMF8xGBr4lNIJ+rTzn98n8/ly5ftr/j4BCEfXwhXr161YPI1Z3h+qrlxFComMzE4WeQY7CwI46yb3h3OVked//iac+tTR+2v+PgEIV8BfZ3cKmpBz7fvWP28V0qYAQRh3mJwe7IxuHwOlU+39blC5+f8++IewP6Kj08Q8hXYF28XsWAW27e4tBh2V44LFCMGCxKDn7+aonws1GZrzs98X3phvf0VH58g5CuIL94m0unVQQt6vnzzSxfDe6VDAsXkOAa3icG7zJbpg2GmXnZ+5uvKA2bsr/gEoQPClzHfSmLQgp4fX3Vx1sNjjBgscAy2ZtP0/jBem3Z+LrivG7eO2l/xCUIHhC9Dvk4fJGPBzJdvcqEc3vCyeZPRJ4qmGINrMhqDzXcVNmb99J5wvjrm/FxwX9wb2F/x8QlCvgL44m0hFszi+obmJ5ubV4FixKAYfL010zubvyQ6XR1yfi64bzW3jtr/8QlCB4QvI76VPEjGgpkP39m5MU8SNWJQDH4pBm/MruZ//rhyxvm5wL7VvJvQ/o9PEDogfBnwreZWUQtmtn2n5obEoBGDYvDOMbhsPiyfcn4usG+l7ya0/+MThA4IXwZ8K32QjAUz2774jkFxYsSgGGwnBluzt3w8LH225PxcQN9KHzBj/8cnCB0QvsR98T1DFszi+Q5UT4kTk9kYfEUMDiQGW7O7ciwsLC06PxfQt5J3E9r/8QlCB4QvYV/8kHg3rg5aMLPl2y8GjRgUgyuMwdZsrxwJF5cWnJ8L6Ov01lH7Pz5B6IDwJeqLMbjaB8lYMLPn21c9KU6MGBSDq4rB1mwrxyhcdH4umC/+IrmTp47a//EJQgeEL1FfNx4kY8HMji9+5mdP9YQ4MWIw0Rhcm7EYbM3W8uEwv8orhdaP7Pk6eTeh/R+fIHRA+BL1detWUQtm+r6lxohBIwbFYLdjMM4bzSj8qBGFF52fC+Tr5AEz9n98gtAB4UvQV6vVLJgF8cUrg7urx8WJEYNi8ItB2KUYfOPzKFz5lULrRzZ97X6W0P6PTxA6IHyJ+iyYxfD5zKARg2Kw1zHYmvdXeKXQ+pFNX7tPHLX/48tVEPoC8uXBF3+jZ4Erhu9AWQwaMSgG+xODn0fhzKFQqVednwvks7/iK5JPEPLlwtd6sqgFM9++Q+XT4sSIQTHY1xhszbbSkVCbrTk/C0L7Pz5B6IDwpehrPUzGgplf38nZC+LEiMGuBaEY7CQGW7O9GYV15+ec+1rPJbC/4hOEDghfRnzLXzVhwcyn75O5EXFixKAYHGgM3pjdYXf5eKg7P7tCaP/HJwgdEL40fPElsstfNWHBzJ9veH6quVkWKEYMisEvx+DOvsZga/aXTzo/FyAI73aV0P6PTxA6IHyJ+FoPk7Fg5tM3tVBpbjgFihGDYjCVGGzN4fKn1o+c++z/+AShA8KXAV/rYTIWzPz5Kgv15kZMoJjMxeBkkWNwRyFisDUnquetH4LQ/o9PEDogfIPy3Xq7qAUzP77ZxfmwYWafQDFiUAx2NQZf72IMvnlzzlRHrB859c3Nzdn/8QlCB4QvZV98eawFM3++hc8WwzszHwoUM6AgzFsMbs9HDE6lGYNx1k/vCcO1CetHjn32f3yC0AHhS9B3u6uDFsx8+HZVj4kTk/MY3CYGcxKDrdkwtTdM1UvWjxz67vRwGfs/PkHogPAN2Hfrw2QsmPnwHa6dESdGDIrBTMVga+KdDaV6xfrhCqH9H58gdED4+uG79WEyFszs+87NjYsTk9kniqYYg2vEYN9isDUflA5//uJ660e+gvDWq4T2f3yC0AHhG7DvdreLWjCz64uvl1jj9RJGDIrBDMdga/aUjls/cuiz/+MThA4IX0K+q1evWjBz5Kstznm9hBGDYjAXMdiao5Uz1g9BaP/HJwgdEL5e+e50ddCCmT3f4mdLnihqxKAYzFUMxlk3vSeMXpy2fuTId+srKOz/+AShA8I3IN+dHiZjwcymb2/1hEAxYlAM5ioGW/PWzN5QXqxZP3Lks//jE4QOCF8Cvjs9TMaCmT3f6dlhgWLEoBhMMga7EYRx3isfCvNLC9YPQWj/xycIHRC+bvju9O5BC2b2fNPxITKT20WKyVwMviIGxWCHt47urhwPS9aPXPns//gEoQPCNyDf3R4mY8HMjm92cb6xSdotUowYFIO5j8HWHJ89b/3Iic/+j08QOiB8A/Td6+qgBTN939JnS2Fr6bBIMWJQDBYmBm/M7jCyyofMWN9cIbQ/5etZEPoC8mXFZ4HLvu+j8icixYjBxGJwrRjscQzemI0z+8N0vWz9yIEvPs/A/o8vTz5ByCcILZh98V2ojjU3zULFiMHixuBrBY3B1myd+SjUZuvWj4z74h1L9n98gtAB4euzz4KUbV+pXgnrpnxu0IhBMVjcGGzNocpp60cOfPZ/fILQAeEThBbMDnzxt+JCxYhBMVj0GGzNp9Vh60cOgrBWq9n/8QlCB4RPEFow7+U7UvlUqBgxKAZzG4MrCcL4ecKpesn6kXGf/R+fIHRA+PrksyBl1zdSm2xuisWKKWIMvioGxeBd5oPS4VDzC09BaP/HJwgdED5BmFff4mdLYeP0PrFixKAY7HMM7ko+BltzuPKp9SPjPvs/PkHogPAJQr47zIHaabFixKAYFIN3mfXTe8NQbcL6kXGf/R+fIHRA+HrosyBl0zcyPy1WjBgUg6sOwjzH4I0g3BM2zxwI5XrF+pFhXzceLmP/xycIHRA+QZgb3/zSxcZGxysmjBhMOwZ3iMEEYrA1e0rHrB+uENr/8QlCB4Rv+cTftlmQsunbVT0mWEz6MTgpBlOOwdcLFIOtOV0dsr4JQvtTPkHogPCt5uqgBXPwvgtzE4LF9CkI8xaD28VggWMwzobpfXd9FYX1Le0gXG0Y2v/xCUIHhK8LMWjBHKxvbulic3MmWIwYLGgMTonBlcZga7bNHAn12br1LYO+1X6O0P6PTxA6IHyuEGbe51ZRk68Y3CYGxWBXY7CdIIxzsnre+pZBX+vjLvZ/fILQAeHrgs+ClD3f0PykYDGZeIhMijG4RgyKwWWzcWZ/mKzPWN8y6LP/4xOEDgifW0YL6YtPFX3TU0WNGBSDYnDVMdiaD2YOh7r1LZM++z8+QeiA8K3SZ0HKnm9P9YRoMWJQDIrBLsVga47fcuuo9S0bVwhXetuo/SmfIHRA+Nwymknf2MUZ0WLEoBgUg12OwfUze8KGmS8+ddT65gqh/SmfIORzhdCClJRv8bOlsLGxYREuRgyKQTHY3RhszY7SEeubILQ/5ROEfMXxWZCy5TtSOyNcjBgUgwONwTdyHINx3mrMJzdfWG99y47P/o8vc0HoC8iXiu/q1asWuIz4JuozzQ2ueDGpxuArYlAM5iAG42yaORBmF+etbxnyXblyxf6PL1M+QciXjO/y5csWpIz4tswcFC9msDHYiLnnJ7aEpyc2h8fHN4aHxtaFB8beCL8eWxv+e/TV8KuxV8J/jL4U/nXkhTvOr0ZfafxvXwm/HXst3D/2evj9+JvhsYkN4Y8Tb4fnJrc0/x5iUAwOMgbfmtnbnAO1U9a3jPmuX79u/8cnCB0Qvk59ly5dsiBlwHeyckG8mN7HYCPG/jTxTnh4fF34n0bg/bIRcP8w/MfwNxf+EL514ffhr87+JnzlXGt+e2PO35i/amO+ev5395yvNeZb538f/mboD82/9y9Hng//M7amGZ9PNaLx5baCUQyKwc5icP0tMdiaC9Vx61uGfNeuXbP/4xOEDghfJ75u3C5qQeqP7+2ZAwLGdHVenHo/PDb+VvNq3T8N/yl8/8Kj4avnfhf+shF7rfnKHad3MfjFuf9L8/XGROs/Dj8d/nPkpUa8rg/PTWzpWQyuFYOFjcE425c9YMb6lr4v3vVk/8cnCB0Qvg583bhd1ILUe99IbVLAmFVPjKZ4i+YvRp4LP2gE1VeWhd/tJsUYbAXh7ea7Fx4O9w0/G34z9lp4euKdsHZaDIrB1cVga8bq09a3jPjiXU+d3DZqf8onCB2Qwvu6cbuoBan3vt2lY4LGdDwvNeYP42+Ffxl+PnzvwiONyPt1+IvG/OXnk58YvDEPNOevb853GoH480Ygxs84/nny/eRj8DUxOMAYvHsQHiifsr5lyBfvfrL/4xOEDghfG75u3S5qQeqtr1KvNjehAse0NVMfND//97ORZ5pR9Bc3I/AvChaDX5gLN/7174efDL8eWxNemNwiBsVg2zEYJ777tVSvWN8y4ou/7Lb/4xOEDghfG75u3S5qQeqt73jlnMgx95z4xM94Nex2EdhJDP5lHmNw2XyjMd9szE+Gn2rePhu/dmJQDLYzxxrnYutbdnzt3jZqf8onCB2QQvu6dbuoBam3vrdn9gsec9uJt0HGJ4HG20HvFIFi8IsxeGMe/Hy+deGh8MvRF5pPLxWD3Y/BbgbhIGMwzjulD0N9tm59y4iv3XcS2p/yCUIHpLC+bt4uakHqnW+0NiV8zJfmmYl3m69i+Nq5390zBFONwa8mEIO3zo+HnwoPja9rPowm3zG4Swx2GIOtOVsdtb5lyNfOVUL7Uz5B6IAU1tfN20UtSL3zeZiMWT7xxe3x9RAx1NoJQTF4axA+eNf55s35wdCj4bdja8Or09vEoBjs+isorG/987XzTkL7Uz5B6IAU1tfN20UtSL3xeZiMaU18UXwMwb/sIATF4MpicPl8rxGG8RUWr05v73EM7hSDGYjBz19BUZuyvmXE1847Ce1P+QShA1JInwUpG77jZQ+TKfo8P7GleWvoVzoMQTG4+hj85oXffz7fH/pD+P3Ymzc/XygGixyD3XgFhfWtvz77Pz5B6IDw3WEsSOn73pn+UBQV+P2B8WExX7/LE0N7HoPnihyDXwzC/+/m/Hj4yfDkxKYkYvB1MTiQGNzQfAXF/lW9gsL61l/fvd5JaH/KJwgdkML5arWaBSkDvql6SRgV9fURExvD94ceXVEIfjEI8xaD968gBh/oWgwun38efT68OLVVDBYwBltzfBWvoLD+9td3r9tG7U/5BKED4pZRC1KSvg9LJ8VRwSYGxi+Hnw9/cfbXOY/B32U6BlvznaGHw2/G17Z9G+nrCb5eQgyuLAbjbCkdCnXrW2Z89n98gtAB4bslBi1Iafvie67WNTZYIqk484fxt5rvw1tNCPY7Brv5rsGsxeDy+Yfhp8Pzk++JwQLFYGsuVMetbxnx3e22UftTPkHogBTKF28XdYUwfd+52phIKsxnBbeGfx99seOnh3Y3Bn8jBlcYgzHi43z3wiPhwfE3m8EmBvschAOKwTh7ysetbxnxxSer25/yCUIHhM8Vwsz4ts0cEUsFebn831z4w6pDsN2HyGQ1Br+eeAwun5+PPBdemdomBgd4dbBfMXhj9oXpetn6lhHfnV5Sb3/KJwgdkEL5LEjp+8r1algzuV0w5XweHl8Xvn7ufjGYWAx+cxUx2Jq/HXosPD25WQzmPgZvBOHRylnrW0Z8V65csT/lSy8IfQH5+u1b/jJ6C0iavtOzw4Ip5/Nfoy+v+sExYjDNGGzNdy48HO4fe10M5jwG47xbOhgWl5asbxnx2Z/ypeYThHyC0IL5JV/cXIimnD5FdPL95gNIuhGCYjDdGPx2a4YeCv829uewdnqHGMxpDLZmaH7S+pYhn/0pnyB0QArri0/YsiCl7ass1oVTTic+hfIHXfq8oBjMRgzemIfDP4w8HV5qfA8MKgbfEIM9jcE4uyvHrG+uENqf8glCvvR98cWsFqS0fUdqZ8VTDufpic1deaVEt2PwK2Kw5zHYmh8OPxGendwiBnMYg60pL9atbxkJwtYT1+1P+QShA1I43/LbRS1IafripkJA5WueGN/YDBcxWNwYbM33h/8Q/hgfNiMGcxeDceIv9Kxvbhm1P+UThHzJ+q5du2ZBStw3uVAWUDl82fzXuvQk0SzH4NfEYHO+05jvDT0SHpvYIAa79q7BNGIwzuaZD8PC0qL1LSM++1M+QeiAFM4XH7VsQUrbd6B2WkTl6rUS65tRJQZXGIPnVxaD30g4Bj+fCw+HhybWicEcxWCcjY25MD9ufcuIb/lto/anfILQASmE79bbRS1IaflqjeMbN3lCKh/z6Phb4a/OiUExeJsY/DwKHwoPjL8hBpOPwb1tx2CcXW0+XMb66wqh/SmfIOTrq+/69esWpMR9Z6ujQipHVwZjiInBfMfgt1YTg8uuFD4w8aYYzEkMtqa8ULe+CUL7Uz5ByJeW79bXTViQ0vPtKB0VUzmYx8Y3NINJDIrBe8bg0CPN+W5j7h9/XQy2HYN7ko7BOMdmz1vfMhKErdtG7U/5BKEDknvfra+bsCCl5avWq2Ht1A5BlYOnicbYEYNisJMYbM6Fh8Pvx9eJwRzEYJx3SgfD4mdL1rcM+OxP+QShA1IIX7xd9HafH7QgpeP7pDosqHLwnsEYNP2Mwb8Ug/mIwZsTnz766MRbA43BbgZhUWOwNcPzU9Y3QWh/yicI+dLw3e51ExaktHzb3S6a6XluYkvfXzrf7xj8qhjsaQz+35XCR8LjExvFYMZjMM7e6gnrW0Z89qd8gtAByb3vTp8ftCCl4Yu3i66Z3C6sMjp/nnw/fP/Co2JQDK4+Bm/OD4b/EJ6ZfLetIBSDacZga2qLc9ZfQWh/yicI+Qbvu9PnBy1IafhOVS4Iq4zOS435yfBTYrCLMfjXmYjBh1YQgw+3FYOt+eHw481fNojBtN41uLHDOTk7ZP0VhPanfIKQb/C+O31+0IKUhm9b6Yi4yuj868gLYjDDMdjRuwb7GIPfuzl/P/xUeGVymxjMaAzGeb/8UViy/mYiCOPzFuxP+QShA5JL390+P2hBGryv4nbRzM5vx14Lf3H2f9OJwXNFjsEHcxeD3xt6tDn3jTx786X1YjBrMdiaiYsl628GfHG/ZH/KJwgdkFz6rly54oSfsM/totmcx8c3du3F82Kw/c8NZjUGv7PCGGzNv4++KAYzGoNxDtZOW38z4Iv7JftTPkHogOTSd7fbRS1Ig/e5XTR78/zke+Gb5x/s8q2ieYvB+/MRgxcGH4OteXDiTTGYwRiM83bpQJhfWrD+Ju6L+yX7Uz5B6IDkzhfvh3fCT9fXfLqol9Fn7iEyPxp6PJMx2M13DYrB/sZgnPgk26cnN4vBjMXgxpn9zTk/P279zYCvm58jtD/l6ygIfQH5eumzgKTruzA/IbIyNvHWvcHH4G/EYNFi8Ob8aPiJ8NLUB0nE4Dox2HYMbmrMztJR628GfPanfIPyCUK+nvmc8NP27a4cF1kZmkfH3wp/cbZ/TxTNagx+XQz2JAZb87PhPzXfTZjJGJwuZgy2Zqpesv5mwGd/yicIHRBBaEHqi2/ps6Xw2tROoZWReW5yS/hGI2zEoBgcZAy25n/GXhWDGYvBOB9Xzlp/M+KzP+UThL5hBKEFqee+kYvTQisrM7Ut/N3QE2IwsRj8ZkFj8PtDf2jOE5ObxGCXY3BDD2Mwznulj0Ld+usKof0pnyDkE4QWpDj7qieFVkbmf0ZfFYMFj8FvJxaD3x/+Q/jhyBPh5TY+TygG04jB1ozUJ62/gtD+mU8Q8vXH54Sfri/eLvrm9C6xlYF5emJzM5zEoBhMKQbj/KAx940+G96cEYNZicE4H5ZPWX8zEIS1Ws3+lE8Q+oZxhdCC1Dvf5EJZbGXiFRNbw/cuPCIGxWDfYvB7HcRga343/roYzEgMxtk882HzlUPWX58htH/mE4R8PfXFk9nc3JwTfqK+j2qfCq4MzH904RUT3YrBr4hBMXibGGxO4797ZupdMZiBGGzNmeqI9VcQ2j/zCUI+t4wW2Rc3BIIr7Xl28t1mlBUxBr8mBrMTgzfnpyN/DK9N7xSDGYjBOPvKJ6y/GfDZn/IJQt8wgtCC1BNfbXFOcGVg/nPkJTHYSQyeF4ODisHW/PfYq0nG4PrcxuC+FcVgnLdnDoRSvWL9FYT2z3yCkK+3t4w64afpOz03LLgyMDEaxGBvY/AbYrBrMRjnb4YeC69MbSt4DO5NPgZb82lt2PqbuG+1D5axP+UThHyuEFqQbjvbykcEV+Lz2PgGMZizGPxWFmNwqIMYHH6sOb8ZWysGMxCDcXaVj1l/M+CzP+UThL5hXCG0IHXVt/DZYlgztUN0JT4/G35GDIrBzMVgnB+PPBVen96ZUAzuyWUMdiMI48SPEFh/0/at5iqh/SmfIOQThBakL83w/JTgSnxenNraDCQxKAZXEoPfHWAMtuYPExvEYAZiMM4nsyPWX1cI7Z/5BCGfICySb3/1lOhKfH47urYnMfiXYlAM9iEG49w38qwYzEAMvh1vG60cs/4KQvtnPkHIJwiL5IsbKNGV9vxw6HExKAb7HIOPdhyDdwvCOM9PvicGE4/B1lQW6tbfxH32p3yC0DdM5nxO+Gn6yot1wZX4PDPxTviLs9mOwa+KwQHG4CNJxGCc/x5/VQxmIAbjnJodsv4KQvtnPkHIJwiL4IuLvujKz7sHxeDyIMxbDD6c6RiM86Phx8PaqR1iMPEYjBOfPG39FYT2z3yCkE8QFsC3vXJUdCU+373wiBjMVQw+VMgY/Nub8/DEukzF4FsFjMG3b76kvrxQs/4KQvtnQeiA8AnCPPsWl5bCa143kfQ8Ob5JDCYagx29eF4Mfj7/NPKnRrDtFYOJx2Cck126bdT62zvfSl4/YX/K11EQ+gLydct36dIlC0iCvqHahOhKfP5l5IX+xOC5vMTgAyuIwQeTj8Hv5CQGb8zj4ZnJd8Vg4jH4dulA+KB8xPqbuO/atWv2p3w99QlCvq74rl+/7oSfqO9Q+bToSnmmtoVvnn+wzSDMWwzeLwZzGoNx/nPsZTE4wBjc1EYMtmayPmP9Tdh35coV+1M+QciXvi/+9soJP03fO9MHRFfC8+j4WzmIwd8VNwYvZC8Gv9+HGIwTX6OyZnqHGEw8BuMcq5yz/ibsu3z5sv0pnyDkS98Xf3vlhJ+er1yvhlentgmvhOfnw88mE4PdfNegGCx2DLbm9xPrxGDiMRhne/mo9TdxX7wTy/6UTxDyJe2Lv71ywk/Pd6Y6IrqSvl30g0YE3b+qzw1+pY2HyKQYg18Xg7mPwTjx4TLruhCEYrB3MdiaqXrJ+puwr9PPEdqf8glCvr77nPDT9B0onxJdCc/D4+vEoBjMbQz+8OY8O/muGEw8BuMcr563/ibsu3r1qv0pnyDkS9e30gfKOOH33vf29H7hlfDcN/KMGOxxDH5TDA40BuP8avRlMZh4DMbZWfnY+puwLz7J3f6UTxDyJetb6QNlnPB766vUq+GVSZ8fTHVemtwavn7ufjEoBnMdg3F+NPREWDu1IxcxuCGLMdhmEMaZXsVto9ZfQcgnCB2QAvvibQxO+On5ztXGhFfC89BtbhcVg9mNwW+LwdvGYGsemVgvBhOPwc2NOVUdsv4m7Ovkc4T2p3yCkK+vvpU+UMYJv7e+D0snhVfC87PhP4lBMbiiGPxexmIwzn2jz4nBxGMwzp7ycetvwr5O3kdof8onCPn66ou3MTjhp+fz/sG0ny66/HbRbsXgV8SgGEwwBn84/ERzXph6XwwmGIPLg3Bz4/8XX1dk/U3T18lto/anfIKQr2++1TxQxgm/d77qbC28OrVdeGXgZfRiUAymGoN/08UY/FFjfj2+Vgz2NAb3ry4Gb87Z6oj1N2Ffu+8jtH/mE4R8ffOt5oEyTvi9852v+vxgyvOLkecyHYNfE4NisMMYjPOTkT+GN6d33+PF83mLwX2ZisE4H1ZOWX8T9rX7OUL7Zz5ByNc332oeKOOE3zvfR+VPhFfC8/+d/33xYvD8ymLwG2IwFzHYmicnNonBhGMwzpbSwVCbrVt/E/W1+z5C+2c+QcjXN1/8gLMTfnq+rTMfCa9E57HxDWJQDBYyBuP829iLA47BvWLwLjHYmpH6pPU3UV98kJ/9KZ8g5EvKt5onjDrh9873+tRO8ZXo/OvwC2IwwRj8VhZjcChbMfijkSfC3zVmzfSOrn9ucEPOXzzfzxiMc6TyqfU3YZ/9KZ8g5EvKt5onjDrh98Y3WZsRXonOK4357oWHxWDBY/C7uY3Bx+8ag615eHK9GEw4BuN8UD5s/U3Y187nCO2f+QQhX998Tvjp+U5WLoivRGPwmYl37hqDfykGxWASMfhYz2Iwzn2jz4a3SnvFYKIx2JrJ+oz1N1FfO58jtH/mE4R8ffGt9gmjTvi98e0pHRdgCcZgnP8ZfVUMisG+xWA33zXYrRhs3Tb6wtR7YjDhGIxzqjpk/U3U187nCO2f+QQhX198q33CqBN+b3xxwyDC0ovBVya3hR8PPZlEDH5VDGYsBh/NVQzG+e34a2Iw4RjcXPow7C2fsP4m6mvnBfX2z3wdBaEvIN9KfU7Q6fkWP1tqhocQSy8GX5zaGv6qEXdFi8G/zm0MPryCGHwklzH4ww5j8O9Gngw/HXn65ucIxWCKMRjn3dLBsLC0aP1N1Gd/ytfNP4KQTxDmyDe5UBZiCcZgnN+PvSkGk4zBh8Rgn2OwNU9PvjPQdw2KwTvHYGvGL5asv4LQ/lkQOiB8gjBLvtNzw2IswRiM8/PhZ8VgD2Owo3cNisGBx2CcX429IgYTjsE4x+rnrb+C0P5ZEDogfLf31Wo1J/wEffuqJwVZgjEY51vnH2o/Bs8VOQYfFIMFiME4fz/yVHhzZrcYTDQG42wvH7X+CkL7Z0HogPC5Qpgl3zuNBVyUpRCEX4zBP93yuonsxeD9K4jBB3IZg98Rg12JwdY8Nfl24WNwU6Ix+M7NqS3OWn8T9dmf8glCPkFoQfriA2WWlsKaqe2iLLEYjPO/o2sSicHfFTcGL2QvBr+f8xj8cWP+c+xlMZhwDMY5Nz9u/U3YZ3/KJwj5BKEF6fOZXqiIsgRjMM5Ph//Y1Rjs5rsGxaAYHFQM/vjmbaOvT+8Ug4nGYJyDtU+sv64Q2j8LQgeETxBmwffp3IgwSzAGX57a1gyor7TxEBkxKAYHEYN/O6AYbM1jkxvEYKIxGOe90qGwZP11hdD+WRA6IHyCMH1f/C2uOEvnITKteXxiY2Zj8OtiUAzeKQaHVxaDtwvCfx39sxhMNAZbU1qoWX9dIbR/FoQOCN8XfU746fm2lg4LtMRiMM6vRl8Wg31+16AYzE4MNmf4ybB22W2jYjCtGIzz6dyo9TfRIIxPfbc/5ROEfILQgtScN6d3i7TEYjDOj4eeFINiUAzeKQZHnmrOHyY2dDUGN2QxBmfSjME4H1ZPW3/dMmr/LAgdED5BmLJvfmlBpCUYg/F/GyNLDKYTg98Wg8nFYJx/HX1RDCYag63PEcYnWVt/BaH9syB0QPgEYaK+8YsloZZYDDY/Pzi+QQyKQTF4jxiM8/fDT4bXpneKwZ7E4IFVxWBrZhaq1t9EffanfIKQr+8+J/z0fKdnh8VaYjHY/PzgyMu3jcGviMHcx+D3xGD7MXhzHpvYKAb7dHXwnRXMJ7Mj1l9XCO2fBaEDwhc+/wCzE35avgO104ItsRiM85Ohp8SgGOx5DP5NDmIwzr+PvViQGNyfuRiMs796yvrrCqH9syB0QPjcMpqq7/3SR6ItsRh8ZWpb+Mb5Bwcag18Tg2IwIzEY5yeNeW1qhxhMMAbjbCkdvOvnCAWhILR/FoQOiCB0wh+gb/30HuGWUgw25umJzdmMwfNiUAze68Xz3Y/B1jw+uXEAMbhPDLY5pcWa9VcQ2j8LQgeEz2cIU/MtfrbUDBbxlk4Mxvnd2OuFicFviEEx2IUYjPOfYy8N5F2DYrC9OTs3Zv1N1Gd/yicI+VwhLPCCVFqoibfEYjDOz4efE4M9iMFvZTEGh4ocg0+2HYM3bhv9Y3hzZrcYTDAG43xU+8T66wqh/bMgdED4XCFMzTc0PyngEovBODEIxKAYzE8MPtHzGGzNHyc39y0GN4rBtufdxnxQPmz9dYXQ/jmPQegLyNfJXL9+3Qk6Md/HlbMiLrEYfHFqa/N2UTGY3Rj8biZi8LEVxODjScdgvEL46/G1YjDBGLwxB8N0vWz9Tcx36dIl+2e+VY0g5BOEGfftLR0XcgnFYHy6aHyfmhgUg+3GYDffNZj1GIzzT6PPhLem94rBBGMwztnqiPU3QV/cn9k/8wlCvr74rl275oSfmO/9Ga+cSCkG4/zP2KtdicGvisGMxeCjYnCVMdia56feF4MrjMHNPYzBOEeqZ6y/CfquXr1q/8wnCPn644snHCf8tHwbpvcKuoRi8NXG3Df8jBjMdAw+kssY/GFGYjDOA+NviMEEYzDOrsox62+CvitXrtg/8wlCPkFY1AVp7dQOUZdQDMb5QSMKshSDf53bGHxYDGYwBuP8YvQ5MZhgDLamOluz/ibmu3z5sv0znyDkE4RFXJDK9YqoSywGX576IHz1nBjsbgw+JAYzFIM/XmUMtuaVqe1iMMEYjDNamxSEiflufbCM/TOfIOTrmS/ekuCEn44vLsrCboAxOPnFGIzz1MSmgsTggx3HYEcvnheDhY7BOI9NbBCDCcZgnE9qQ4IwQd/yB8vYP/MJQr6e+eItCU746fjOVEfEXUIxGOf+sdczFoMP5DIGvyMGMx2DP23Mf429LAYTjME4hyqnBaEgtH8WhA6IIHTCT8F3vHJO4K04CLsfg3H+beTPA4rB+8WgGMxNDMb5x9Gnw/qZPUnE4CYx+IXZWf5YECboi0+Ct3/mE4R8PffFe9Sd8NPxfVg6KfASisE4Pxl+apUx+LvixuCF7MXg98VgT2Lwp6M35rmp98RgYjEYZ8ttHiwjCAfvW/7qCftnPkHI1zOfE35avp2lj0VeQjEY5zsXHu76i+fFoBhsLwjzFYM/HX06PDDxphhMLAZbM1abEoSJ+Za/esL+mU8Q8vXEV6vVXCFMzOel9P1/oujdYjD+ff7qXP9j8OtiUAzeKQaHsxuDcf557Hkx2KMYfGcVMXjjwTLDgjAx3/JXT9g/8wlCvp4FoRN+Wr63p/eLvURiMM7TE5vFoBjMfAz+XSIx2JrXpneKwcRiMM5HlU8EYWK+5a+esH/mE4R8bhktiG/d1G7Bl0gMxnl4fF2uY/CbYlAMdjkGf3KPGIzz1NTmtGJwRgzG2VU5JggT9LWeNGr/zCcI+QRhQXxrp3aIvkRiMM7/jq0Rg12KwW+LQTF4c347vlYMJvK5weXzfvkjQZigz/6ZTxDyCcIC+RaWFkVfQjH46tT28K8jL4hBMSgGuxiD/9CYX4w+JwYTi8EtN2eqXhKEiflar56wf+YThHyCsAC+2uKc8EsoBuP84/DTYjBjMfg9MZh0DLZm7fSOnMfggczFYJwLtXFBKAjtnwWhAyIInfAH5ZtaqIi/HsbgKx3GYJwfDj0uBsVgB0EoBtuJwThPTb49gBgc7ENkUo/BOCcrFwRhYr7Wuwjtn/kEIV9PfE74afnGLs4IwIRiMM63GqGzkhj8mhgUg2LwjjEY5zcTa8VgYjEY51DltCBMzNd69YT9M58g5HOFsAC+oflJEZhQDMb/31fP/bZ/MXheDIrBe714Ph8xGOfnn3+OUAymEoNbbnnSqP2BILR/znAQ+gLytfsn3obgBJ2O73RlSAgmEoNxnpvcknwMfkMMisEkYvCPHcVga+L7CMVg/2PwbkH4XvlQWPpsScAl5LN/5lvJH0HI1/afK1euOOEn5DtRPS8GE4nBOE+ObxKDYjDDMfhkxzHY0YvnVxmD/zD6p/CnyXfEYEIx2Jrq4qwgTMxn/8wnCPlcISyI70jlUzGYSAzGeWR8vRi8NQizFINDeYnBJ3IZg3EenHhTDCYWg3EmL5YFYUK+ubm5UKvV7J/5BCGfK4RF8B0snRaDicRgnPvHXheDA4jB7+Y2Bh8Xg8ti8B8b8+/jL4nBxGJwS+lQOD8/IQhdIbR/FoQOiCB0wh+E70D5pBhMJAbj/HpsjRgUg22/a7AQMTjSvRiM80+NeWtmrxhMKAbjnJwdEoSC0P5ZEDoggtAJfxC+veUTYjCRGFzTmP8ee0UM5jgGu/nieTHYeQy25s9TW3MTg5tzEINxPqp9KggFof2zIHRABKET/iB8e0rHxWACMdgKwn8f+bMY7HsMPrKCGHw0+Rj8oRi8bQzGeXxyoxhMKAbj7K4cF4SC0P5ZEDogRfHFd9s44afj2106JgYTicE4/zLyfM9j8K9zG4MPi0ExeM8YjPPbidfEYEIxGOf90keCMEGf/TOfIOQThAXw7Sp9LAYTicE4vxh+TgzeIQjFYJox+OOMxWCcfxl7QQwmFIOtmVu6aH/gCqH9syB0QAShE36/fTtKR8VgIjEY5+cjz+UmBjt616AYFINtxOBPuxCDzRl5Oqyf3iMGE4rBODMLVfsDQWj/LAgdEEHohN9v3/bSETHYQRD2Mgbj3DfybIIx+GDyMfgdMSgG243Bm08afXF6qxhMKAbjjF2ctj9wy6j9syB0QAShE37/g/BoQYIw/RiM87ORZ9qMwftXEIMPiEExKAZvzpNTb68gCMVgr2Kw9S5C+wNXCO2fBaEDIgid8F0hLGwMLg/CQsTghezF4PfFYC5i8J9GnwkPjL8pBhOKwfcac3pu2P5AENo/C0IHRBA64fsMYVZjcNuqY/DGZwifFYNiUAz2OAbj/Gr8FTGYUAy+Vz4UPp49Z38gCO2fBaEDUgSf9xCm5duZ06eMdushMv2MwTj/PPLcyj43KAZzFYN/u9IYHBaD7cRgnJ+PPdcMt6LE4DuJx2Ccg7VP7A98htD+WRA6IILQCd9rJ4obg633EIpBMdjPGPy7AsZga96Y2SUGE4nBOLurx+0PEvNdv37d/plPEPIJQi+mF4P9isE4/zH6YjIx+E0xKAZzHINx/jy1VQx2PQYPrigG42yrHLE/EIT2z4LQARGETvj99u0tHReDicRgnP8ee0UMisFcxuBPEovBOE9Nbr57DM7kJQY/TD4GW1Or1+wPBKH9syB0QAShE34/fftLJ8RgIjEY57djawsXg98Wg2KwyzH4j23EYJxHJt4SgwnFYJxSvWJ/kJDv2rVr9s98gpBPEObdd7B0SgwmEoNxHhpbJwZ7GIPfE4Ni8Ob8rDG/HX9tQDF4oLgxeI8gnKqX7A8Eof1zVoPQF5Cv3XGCTst3fPaCGJzq7rsG16xinpjYKAbFoBjsQwzG+Y+xl1YVg2+Lwa7GYPMK4ULN/iAhn/0zXycjCPkEYUZ9p2eHxWAiMRjn+cn3xGAOYvBvxGDyMRjnF/HVEwk8REYMLrtCuFC2PxCE9s+C0AEpgk8QpuM7NzcuBhOJwTU3/zp/ff5BMSgG247BH+U2Bp9eQQz+qe0YbM1bM3vFYCIxGGfs4rT9gSC0fxaEDoggdMLvp29oflIMJhKDa6Z2NOdvhx67ZxC2E4PfEINiMIkY/GOyMRjnteldYrBH7xrsNAbjXGisSfYHafnsn/kEIZ8gzLlv/OKMGEwoBtc25r6RZ8WgGEwuBjt612BGYvBno8+Gl6e3icFEYjDO2bkx+wNBaP8sCB0QQeiE30/fzEJVDCYUg3F+NfpKpmLwW1mMwaEix+CTYvBmDMZ5bvo9MZhIDMb5ZG7E/sAto/bPgtABEYRO+P30zS7Oi8GEYjDOY+MbxKAYbCMGn8hlDP5DH2PwZ2PPhqen3hGDicRgnPigM/sDVwjtnwWhA+Ipo074ffbFWBKDacRgnJcmt34pCMXg8iBMOQYfW0EMPp6PGBzJXgzGeXLqbTGYSAzGOSUIXSG0fxaEDogrhE74/fe9MbVTDCYSg635u0YMiMHBxWA33zUoBtONwfsa84fJDWIwkRh8r/xRODk7ZH8gCO2fBaED4gqhE36/ffEdXGKwvRh8tQ8x2Pwc4dgrYrArMfioGBSDd4zBOA9Nru95DG4Wg23FYJzj9Qv2B24ZtX8WhA5I3n21Wk0QJuZ7b+aQGEwoBuM8PbFZDHbwucGsxuAPxeBAYzDO7yfXicFEYvD9GISz5+0PBKH9syB0QIoQhJcuXXLCT8i3s/SxGEwoBlsToyHtGHxoBTH4sBgcUAz+WAx+KQb/efz58MepzWIwkRiM8/HsOfsDt4zaPwtCB6QIPkGYlu9g+ZQYTCwG4/xmbG1fYrCjdw2KQTGYgxj8z/GXw1ONENxQ2icGVxiDW3oQg3GOzp61PxCE9s+C0AERhE74/fadqJzLTwxO5iMG48R/jhhR7cfgg2JQDA48Bn+aaAz+y/gL4eHJ9WHNzA6fGUw0BuMcc4XQLaP2z4LQASmG7/Lly074CfnOV8fEYGIx2Jr/GX01NzH4HTEoBrscg/90jxi8rzG/nXg9vDD1XthU2t+Xp4mKwZXHoM8QCkL7Z0HogAhCJ/wB+aZqpUSCMG8xuH1VMdi6SviDRuAMNAYvZC8Gvy8GCxuD9408G34z/lp4ZnpLWD+zt68vnReDq4vBOCdmPWVUENo/C0IHpBC+K1euOOGn9BmB2Xp4dYAvp+9vDG7LTAy25vGJjeEb5x8Qg2JQDN4hBn/evBL4Wnh2ckvYMLOvrQgUg+nF4PveQ+gzhPbPgtABKY7v6tWrTviJ+d6a3iMGE4zB1jw5san5snoxmFYM/q0YHFgM/nL0+fD7iTfDc1MxAveGt2cO3BgxmNkYjHN6dtj+wBVC+2dB6IAUwXft2jUn/MR8W2c+yuwTRVOMwW4G4Ws3J/7734+9Gf526DExmOUYHBaDK4nBGIH/NfZyeGxiY1gzvT1smtnfCMDW5CMG38ltDB5qKwbjfDI3Yn8gCO2fBaEDIgid8AfhO1A+KQYTjsHls3Z6R3h4fH34++E/dv1dg2IwzRj8u4LG4C9HXwi/G389PDO1Jayb3r0sAMXg6mPwYHIxGOfM3Kj9gVtG7Z+zGoS+gHyd/HGCTs8XF2ExmH4M3pidn88fJzeHf2lsmmOoiUEx2I0Y/MkAY/Cfx55vPhX0qcb39drpnc2rgK25awzOiME8xGCcT2sj9gcJ+eIzH+yf+dr9Iwj5OvY54aflm16oiMGMxeDyiV/b+8deDz8ZfqpnMfhtMSgGuxyDvxh7Lvx6fE14curt8OrN20BvN8WIwQ9zGYOdBuH52pj9gSC0fxaEDkgRfLVaLczNzTnhJ+RbWFpshpoYzF4M3jrPT24J/zu6pvkQGjEoBlOKwX8bezHcP/5688r2mukddwzAdGLwQHFjsNT/GIwzUp8UhAn54kMA7Z/5BCFfT31O+Gn54pP6xGC2Y/DWeWHyveaVw38a/lP49vlsxOD3xGAuYvC+sWfDf429Eh6eWB+en3ovrJvZ01YA9iIG3xaDmYjBOOO1aUEoCO2fBaED4pZRJ/xB+XZWjiUdg6+IwVVN/Od+dPyt8K+jf26GkBi8XRCKwZXE4H1jz4X/Gr8Rf3+afLf54KONHcZfezG4XwzmOAbjTNVL9geC0P5ZEDogrhA64Q/Kd3z2vBjMaQzeOq83by19L/x+/M3wL6PPhx+OPC4GxWBbMfiLsefDfzfi76GJdeGZqXdvPPylEVCbVhmAYlAMxinXq4IwIV98Krz9M58g5BOEBfKNX5wRgwWJweZMt2ZXc16YfL+5yf+PsZeaofDdZvCJwW7E4I8yGIPxvX//OfZyeGDijfDk5Nvhxemtzds+N87su2X2i8GMv3g+lRh8v/RRqM+6g0gQ2j8LQgdEEDrhD8y3sLTQDCsx2L8YXJtIDN5uXpveEf40+U54cPyN8O9jLzZD47tiMPkY7PRdg/FVD78aj+H3Znh8clN4Yer9xrHfeZvw2ycGxWDvYrAx8WMLXkuVlu/69ev2z3yCkE8QFs0XN0ViMJ8x+FoHMXinif/8z0y+Gx4ZXx/+d2xN+OXo8+HHw082o68nMThU5Bh8sisx+NORp8MvRp9rXu2LT/h8bHJjeHZyS1gzvT1sKO1tM/zEoBjsbQzGOVA9JQgFof2zIHRABKET/qB9+6onxaAYvOu8cZuJV5RiZMSH1vxmbG34j9EXw30jzzRj8fuFj8EnehqDzat8jTD/r0bw/a4RfI9Obgh/nNgcXpza2jwub83sDRsaAdeajV2Z/V0NQjEoBuN8PHtOECbms3/mE4R8ffE54aflOzM3KgbFYEcxeOfZ3Zz49/7z5Nbmu+ceHl8ffh2Dceyl8M8jz4V/HHk6/GjoiYzE4ON9jcF/aHxtYujFr1W8GvvA+BvhDzH2Gl/H56a2hJcbPwNvzOxqvi5mwy3Rd6cRg2Iw1RiMc3p2RBAKQvtnQeiAuELohD9oX31xTgyKwa7F4J3mzVsm/n/isY9XGZ+ceDs8OvFW82Emv26EUHyiZfwMY4yj+KCTeEUsRtgPGgG5shh8rG8xeOMKXnxAy7PNz+rFF7P/qvHP85uJ15qB98jE+vDE5Kbw9OQ7zXf1vTT1QfOpneum99y8stfuiEExmO0YjDM0PykIBaH9syB0QAShE34Kvrh5zHoMvioGMxODq5n4NY3fN/FqWXyNRnwgSnwQTgysJyY2NWPrDxMbmoEZn6B6Y9Z/YeLDVH439tqXJgZbfK9eax5r/HUem9jYnCcbf92nGuH61OTb4dmpLc2Y+3Pj7/3q9Pbmw3jilbsYdKsZMdj/GNwsBgcWg813EC5UBGFCPvtnPkHI55bRAi9InXyOUAyKwU6CsJsxGK+idWPWr3RmvjxvfT5iUAyKwU4n3qEiCF0htH8WhA6IIHTCT8B3bm5cDIpBMSgGxaAY7FsMflA+bP11hdD+WRA6IILQCT8V39zSxWasicE8xOBOMZihGHxLDIrBLsfglgzEYPOVE7VT1l9XCO2fBaEDUkRfrVYLc3NzTvgJ+jbPHBCDPYvBHWJQDIpBMSgGl83x2QvWX1cI7Z8FoQNSZJ8Tfnq+o/WzvYvBSTGYcgy+LgbFoBgUg32MwTgX5iesv4LQ/lkQOiCC0Ak/Jd/0QuUuQZi3GNwuBsWgGOxRDG4Sg2KwjZlZqFp/BaH9syB0QAShE35qvrgRHlwMbhODncTglBgUg2JQDGYzBuNcXFqw/gpC++esB6EvIN9KfVevXnWCTtS3t3RcDIrBXMTgOjEoBsVgsjG4p3LC+puY79KlS+H69ev2z3wdjSDkW7EvnnCc8NP0XaiNd/UhMinG4BoxKAY7CEIxKAa/GIR5i8FDfY/BOB9Xzlp/E/TZP/MJQr6++pzw0/TVG/PG1C4xKAbFoBgUgwOLwYO5jsHmA2VqY9bfxHyXL1+2P+UThHz99cVbE5zw0/TtKx0Xg2JQDCYYgxuyGIMzYlAM3uaBMvWy9Tcx35UrV+xP+QQhX3998TdRTvhp+oZrE2JQDIpBMSgGu/i5wRRjcFBBuLP8sfVXENo/C0IHhG/1D5Zxwu+tb8P0XjEoBsWgGBSDYrDrc7R6xvqboC/uy+xP+QQhX199q32wjBN+b32HSqfFoBjsaRCKQTG48hg8UNwYLGU7BuPEu1Csv+n5rl27Zn/KJwj5+h+Eq/kcoRN+b32TtZn2Hywz1d0Xz4tBMSgGsxiDg32IjBjMRgx+UD4carM162+Cvrgvsz/lE4R8ffet5nOETvi99703fUgMikExKAbFoBjs2hyqnLb+JuiLv6C3P+UThHwD8cUPMDvhp+v7tDoiBsVg7mNwfW5jcJ8YFINJxWCcs/VR668gtH8WhA4I3//9iferO+Gn66s1jtu6xia+qDG4VgyKQTEoBgf44vm8xWD8Z1n+ugnrbzq+1hNG7U/5BCFf332rebCME35/fLd9uIwYFINicAUxuFcMisHCxmCc/ZWT1t9Efa0njNqf8glCvoH4VvpgGSf8/vim6+XwqhjsaQy+JgYHGIN7chmDG8WgGEwsBpu3i9ZGrb+J+lpPGLU/5ROEfAPxrfTBMk74/fPtmDkqBsWgGBSDYlAMrni2lg+H6i1PF7X+puNrPWHU/pRPEPINxLfSF9Q74ffPN1qb7PBdg2JQDIpBMSgGxeD/zZHqp9bfhH32p3yCkG+gvpV+jtAJv7++rTOHxaAYHEgQikEx2O0gFIP9n9HalPU3UV+8U8v+lE8Q8glCC9I953x1rCsx+KoYHGAM7hKDYlAMisG+z67KsVCfrVt/E/Utf8Ko/SmfIOQbmG8l7yN0wu+/753pA2JQDIpBMSgGxWBHc6Y2Yv1N2Lf8CaP2p3yCkG9gvpW8j9AJv/++s9VRMdjVGNwpBjMUg2+JQTEoBjuebeUjoXaHh8lYf9PwLX/CqP0pnyDkG5hvJbeNOuEPxvflq4RiUAyKQTEoBjuNwS0FiME4J6sXrL8J++Krv5Y/YdT+lK/jIPQF5Oumzwk6G77xi6Ucx+CO5GPwdTEoBsWgGMxIDG5tzNzSRetvwj77U77V/hGEfIKwoL54C1D/YnC7GBSDYrBHMbhJDIrBHs6J2QvWX0Fo/ywIHRA+QZhH39RCJbw6uU0MthuDU2JQDIpBMVisGPygfDjMLs1bfzPgsz/lE4R8Sfmc8LPj2109LgbF4GCDUAyKQTGY7JyeHbb+CkL7Z0HogPAJwjz7aotzzejJyovnxWDOYnBaDIrBewVh3mLwUGZiMH6sYH5pwfrrllH7Z0HogPCtzOeEnx3f0fpZMSgGxaAYFINi8Atzfn7c+psBn/0pnyDkE4QWpFXPwtJic+MrBsWgGBSDxYvBg2LwNhM/TrD02ZL1VxDaPwtCB4RPEBbFNzQ/KQbFoBjsehD2OQZn8hKDH+YyBrMShPGfd+pixforCO2fBaEDwicIi+bbXj4qBsWgGBSDYrDAMRjn+Ox562+GfLVazf6UTxDypetzws+Wr7o424whMZhODL4hBsVgEjF4oLgxWCpWDG6vHA3zbbyE3vqbhs/+lE8Q8iXti7+xcsLPnu945ZwYFINiMKcx+LYYFIP3mLH5aeuvILR/FoQOCJ8rhEX3vTdzSAyKQTGYdAzuF4NisOtzdPas9VcQ2j8LQgeEr/s+J/zs+abqpQ5uHRWDYnClL57PWwzuE4NiMLMxGJ8qerGDdw5afwWh/bMgdED42r5t9F5R6ISfpu9Y9WzfY3CtGBSDYlAMDvBdg0WNwQ/Kh0NlsW79zZjP/pRPEPK5QmhB6rlvW+mIGBSDGY7BvWJQDIrBNia+dsj6KwjtnwWhA8LXU58TfjZ9pXolrJvanbsYfE0MikExKAbFYHOO1c9ZfwWh/TOfIOTrj88JP5u+C9XxsHZSDIrBbsTgnlzG4EYxKAYzGoMfVk+Hpc+WrL8Z9Nmf8glCPkFoQeqr72D5tBgUg2JQDIrBHMXg7srqHyJj/XWF0P5ZEDogfIKwIL76bD1smT4oBhOOwW4GoRgUg2Iw3zG4vXQ0lGYr1reM+ubm5uxP+QQhnyC0IPXfN1Mvh7em94pBMSgGCxCDm8VgbmNwW/lImKjPWN/cMmp/yvfFIPQF5OuH7+rVqxaQjPumF6rhjaldYrALQSgGxaAYFIODiMHSYs36lnFf3E/Zn/J12ycI+friu379uhN+Dnzn5sYyHIM7xWCGYvAtMSgGxWD3bhOtHAnlW941aH3Lpi/up+xP+QQhX2Z9ly5dcsLPge9g7RMxKAbFoBjMVAxuKXIMlo/c9sXz1rfs+eI+yv6UTxDyZdp3u9tGnfCz51tqzM7KsS7E4A4xKAbFoBgUgz2ceK6uLNStbznxtXu7qP0pnyDkS9YXb3O49SqhE342fQufLTY3G3mOwdfFoBjscgxuEoNisI+zr3YyzC7OW99y4ov7p3ZvF7U/5ROEfEn7rly54oSfE9/c0sXmJjO5GJwSg2JQDIrBYsfg4dqnYWFp0fqWI9/ly5ftT/kEIV8+fLc+XMYJP9u++uJ8c1MpBsWgGBSDYjCNOTk7FJY+W7K+5czXye2i9qd8gpAved/y20ad8LPvqy3ONTe8YjD9GFwnBsWgGMxtDMbXSoxenLa+5dDX6e2i9qd8gpAved+1a9ec8HPmWx6FYjBnMTgtBsXgvYIwbzF4KHMxuK96snketr7l09fp7aL2p3yCkC953/KHyzjh58cXNyNxgygGxaAYFIPdj8GDYvA2E/95T88Ot3WLqPUtu774i3T7Uz5ByJc7X+vhMk74+fLNL10M7zc2KGJQDPYrBjdkMQZnxKAYXP3sqhwLUxcr1rec+zp596D9KZ8g5MuUr/VwGSf8/Pnik+12lI+KQTEoBnMdgx/mMgazEIRbbz44Jr7+x/qWf1+nD5OxP+UThHyZ8sV74p3w8+mLty8dqJ4Wg2JQDPY1Bg8UNwYL8hCZ+FnBymLd+lYQ30oeJmN/yicI+TLli/fEO+Hn23eier4ZXnmOwTfEoBjscgy+LQbF4K1PEC0dDhfmJ6xvBfOt5GEy9qd8gpAvU774W6/417Qg5ds3VB0P66f2iEExWMAY3C8GxeCq5oPy4eYv1ir1qvWtgL6VPEzG/pRPEPJl0mdByr9vqj4TtswcFINiUAyKQTHY5ucEP66eDaVa2fpWYJ/9KZ8g9A1TCF+tVrMgFcRXn62Hg+XTHT9sRgz2PwbX5zYG94nBHLx4Pu8xeKByKkzVS9aPgvtW+jAZ+1M+QciXWZ8FqTi+M9WRZoSIQTE4iHcNikExmGoM7i+fDOO1aesH36oeJmN/yicI+TLtsyAVxzdTL4cdpaPtBaEYFINiUAzmOAb3VU6G4dqE9YPv84nvarY/5ROEvmFcIbQgFcJ3snqhGTRiMKUY3JPLGNwoBsVgYjF4sHI6TNSnrR98X/B14+qg/Slfx0HoC8iXis8CUkxfeaHefJKeGBSDYlAM5j0G48Nijs+eD7XFOesH350/c29/ytdnnyDkS8YXb5GwIBXTF19kf2ZutBkreY7BbgahGBSDYjA7MRh/6XVqdjjMLV20fvAJQj5B6IDw3ckXb5GIt0pYkIrrm12aD/trp8SgGBSDbcTgZjGYfAzuqZ4I5+bGw/zSgvWDry2f/SmfIHRACu9b7VVCC1I+fOMXZ8KWxmau9zG4SwyKQTEoBrt+W+hH1U/D9ELV+sHXkc/+lE8QOiB8N68SWpD4WreRnpsfb27wxaAYFINiMPUY3F46Ek5Uz4dSvWL94Ot47E/5BKEDwtelq4QWpPz54q1WH9U+bYaVGEwrBt8Sg2KwyzG4JWMxGK0HKifDhepYqM/WrR98gpBPEDogfN3yrfSzhBak/Prqi3PNFze/cZswFINiUAyKwX7G4I7yx82rgdP1svMz36on7nlqtZr9H58gdED4lv+5evWqBYnvtr6peulGGE51/yEyYlAMikExeKfZVj4SjlQ/DWP1Kednvq7arl27Zv/HJwgdEL7bfZZwJVcJLUjF8cUXOu8tn2jGlxgUg5t6HoRisKgxeKByKpyrjYbabM35ma/rvrjXsf/jE4QOCF8XrxJakIrnm6zPNK8YrrtnGIpBMSgGxWB7nwvcVzkRPqkOh1Kt7PzM11NfvDpo/8cnCB0Qvrv86fQqoQWpuL7pWikcKn/SjI2sx+A6MSgGxWDfY3B/5WT4tDYSZlYRgc7PfJ3M5cuX7f/4BKEDwnevP/E3ZxYkvk58lXo1nKpeCO/OfFisGJwWg2LwXkGYtxg8tOoYPFA7Hc7PT4S5xXnnZ76++uIvvOPHY+z/+AShA8J3jz+dfpbQgsTXmvgI+HO1sbCjdPTm5wzFoBgUg0WPwa3lw+FQ7ZMwND/ZfKWN8zPfoHzxFVv2f3yC0AHha9MXrxK2G4UWJL7b3k5aL4djlbPNDb4YFINtx+CMGOwsBg8mGYM7KkfDsdlzYezidFj4bNH5mS8J3/Krg/Z/fILQAeFr40+7L6u3IPHdbWqN77kz1ZGwM141nBKD/YrBDWJwgDH4YS5j8K5BWIq3gp4KZ+fGQmWx7vzHl5zv1quD9n98gtAB4WvjT/xNmgWJr5u2mXo5fDI3ErY2NpBiUAyKwWzH4PbK0XC0frZ5K+jc0kXnP75kfa3XTNj/8QlCB4RvBb52XkNhQeJbiW9moRqONDaTcSMtBsVgb2PwQHFjsItPFP3g5mcB41XAcgdXAZ3/+Abtu93VQfs/PkHogPB1cJXwXp8ltCDxrdZXXqyF4/XzzQ21GCxKDA72ITJi8N4TI3Bv5UQ4UT0fxupTzYdGOf/xZc1365NF7f/4BKEDwrcC371eQ2FB4uuWb+mzpTC9WA3HZs+HrZXDYlAMisE+xuDyABytTYVaIwCd//iy7Isx2HoJvf0fnyB0QPhW6YsvcrUg8fXbN7s4H87Pj4f9tVPN4EkhBtfnNgb3icGCxWC8BfRA5WQ4WTkfhmsToTpbc/7jy5XvTreK2v/xJRGEvoB8WfRZ4PgG6as1NqtDjU3rocrpZkyIQTGYhxh8t48xuKt6PHw8e675Uvj4GcB4Rd75hS+378W9uW+x/+NL1ScI+TLrsyDxpeKLn2k6XjkX9jQ2uTFm8heDe8WgGFxxDH5QPhIOVE6F07PDYeJiKVy85YXwzi98RfDZ//EJQgeEr8u+Wq122yi0IPEN2rfUfDBNvfn0w3h76aabVxC7H4N7chmDG8VgpmMw3vq5r3wiHKueC+dqo2GqXnJ+4Su0z/6PTxA6IHw9vkI4NzdnQeJL2rc8EOPLsmOIiEExmIcYjFf+Yvx9HOOv+sX4c37h4xOEfILQAeHrm8+CxJc1X31xvvkC7fjuwx2Vj5shJAbFYKoxGJ/4uatyLByufBpOV4eaD32ZrpedX/j4uhSD9n98gtAB4ROEfAX3ta4iXpifaEbizkYkxtgSg/mIwc2ZicFDYXf1eON78Ez4ZHYknK+ONa/61Wfrfn75+Dr02f/xCUIHhK/PvtatoxYkvrz4FpeWmu9f+6Q2FA6VT4ed5Y/D5pkPxaAYXGUEHgrbKx+HD6unw7H6+eatzOMXS6G6OPulJ336+eXjW5nP/o9PEDogfAPyWZD4iuCr1KthrBGKn1aHw5HKmbC7fKz5RMe3pveIQTH4+WwtfxT2VE+Eo/Wz4Uwj+kbnp0N5sRYWP1v088vHJwj5+AQhX/588amjFiS+IvtiKI7WJsMnlaFwtHwm7C+fDNtLRxsxcbARi2IwbzG4rXw07C2fCB9VPgknqufD2dpImLxYbl7pW1xa9PPBxzcgn/0fnyB0QPgG7Lt06ZIFiY/vlqnN1pufBYu3BsZbBOOtgh/WTjcfaBODUQymE4PxvX3bK0fDnvLxcLByOhytng0nqxear3CIV4ZL9fIdP9Pn54OPTxDan/IJQr7C+65cuWJB4uPr0BevKNUX58L0QqV5a+G5+fFwsj4UDtfOhP3Vk83PL8bbUjc1Y04MdhqD8SmdMfJ2V443P7sXb+M8NTscPqkONx/cEq/sxmCv1mt+Pvj4BKH9H58g9A3Dt1pfN68SWjD5+L4480sXQ3mh3ojHarhQGw9nGlETH3xzvHKu+ZnGQ5VPwv7KyeZnG3eUjzZjKEZRKwg39TwIuxuDzat28Z17pcPNK6ox6mIkxyush+tnwvHZC+H03EgzoofnJ8PExVIoLdaat27Gr9WtD2rx/cfHl0+f/R+fIHRA+BLyXb9+vWtRaMHk4+ueL97qGD/rWKpXwnS9FCbjbay16eYVspH6ZBi7OBNG5qfC0PxEON8IrE/nRsMnd5gb/91IOFG/8OVpRFr87+KtlnFON4L109rw5xNfot6aodpE8+8dDeP16eb79WYaE52OLx8fX7u++CwD+z8+QeiA8CXku3r1qgWTj4+Pj4+Pr6c++z8+QeiA8CXsu3z5sgWTj4+Pj4+PTxDy8QlCviL6unHrqAWTj4+Pj4+P73Y++z8+QeiA8GXAd+3atVVFoQWTj4+Pj4+P79ax/+MThA4IX4Z8q/k8oQWTj4+Pj4+PTxDyCUIHhC/jvpV+ntCCycfHx8fHx7d84t1H9ld8gtAB4cugbyW3jlow+fj4+Pj4+FoT7zqyv+LLXRD6AvIVyWeB4+Pj4+Pj41vJ2F/x5dUnCPkK57Ng8vHx8fHx8XUag8tfPm9/xScIHRA+QWjB5OPj4+PjK1AQ2l/xCUIHhC8nvvgbPgsmHx8fHx8fnyDk4xOEfAX1WTD5+Pj4+Pj4OolA+ys+QeiA8OXQZ8Hk4+Pj4+PjE4R8gtAB4ROEFkw+Pj4+Pj6+e8ag/RWfIHRA+HLos2Dy8fHx8fHxtROD9ld8gtAB4ROEFkw+Pj4+Pj5BaH/FJwgdEL48+SyYfHx8fHx8xfbZX/EJQgeEj8+CycfHx8fHV0Cf/RWfIHRA+PgsmHx8fHx8fAXz2V/xCUIHhI/vjnFoweTj4+Pj48uvz/6Kj08Q8vHddSyYfHx8fHx8+fPNzc3ZX/HxCUI+PkHIx8fHx8dXNN9qY9D+ik8QOiB8BfJdu3bNgs7Hx8fHx5cTXzdi0P6KTxA6IHwF83UzCi3ofHx8fHx8g/F1Kwbtr/gEoQPCV0BfjMJLly5Z0Pn4+Pj4+DLoaz0szv6Kj08Q8vGt2NeNK4UWdD4+Pj4+vsEEof0VH58g5ONbte/q1aurulJoQefj4+Pj4+ufL67Z169ft7/i47tbEPoC8vF17rMA8/Hx8fHxZcNn/8LHd/cRhHx8gpCPj4+Pjy93vlqtZv/CxycI+fh677Og8/Hx8fHxpeGLTxK93cNj7F/4+AQhH19PfK1Fx4LOx8fHx8c3eJ/9Cx+fIOTjG4jPgs7Hx8fHxzc4371eK2H/wscnCPn4+uKzoPPx8fHx8fXX1847Bu1f+PgEIR9fz30WdD4+Pj4+vv754ucF4/q7/OEx9i98fIKQj2/gPgs6Hx8fHx9f7332L3x8gpCPL0lf/E2lBZ2Pj4+Pj693PvsXPj5ByMeXGZ8FnY+Pj4+Pr3u+dm4RtX/h4xOEfHxJ+SzofHx8fHx8q/PZv/DxCUI+vkz7LOh8fHx8fHyd++xf+PgEIR9fbnw2HHx8fHx8fO357F/4+AShbxi+3PmuXLkSLl26ZMPBx8fHx8f3/7d3RztuwkAUQP//a5F4TDZpNasdibJAQyCA7VPJat96lEnsuRiwQMjHJxAqCF+LvsfjsVso1HDw8fHx8dXm+/r60r/w8QmEvjB89ftut5uGg4+Pj4+P72fEuqg/4OMTCH1h+JryxVVQDQcfHx8fX8u+uGsm7p7RH/DxCYQKwtekb8stpBoOPj4+Pr6SffFsvf6Aj08gVBA+vjdvIdVw8PHx8fGV6IsLoc/nU3/AxycQKggf3/BPXCnVcPDx8fHx1eyLxyX0B3x8FwqEPkA+vmv6NDB8fHx8fDX69Ad8fNfyCYR8fAKhhoiPj4+P7yO+vu/1B3x8AqGC8PFt8Wk4+Pj4+PhK9ekP+PgEQgXh49vBp+Hg4+Pj4yvFl+uW/oCPTyBUED6+nX0aDj4+Pj6+EgKh/oCPTyBUED6+D/k0HHx8fHx8V/PpD/j4BEIF4eM7wach4uPj4+M705dHSOgP+PgEQgXh4zvY13Xd90Ich/tqiPj4+Pj4jvLFujM+S1B/wMcnECoIH99Jvufz+ed2u2mI+Pj4+Pg+7ps7VF5/wMcnECoIH9/JvsfjsXm3UEPEx8fHxzc17vf79wVI6y8fn0CoIHx8F/dtuY1UQ8THx8fHt3RrqPWXj08gVBA+vgJ8cRU3FnENER8fHx/fWl8GwaUdQesvH59AqCB8fAX41j5fqCHi4+Pja9cX60U8frAmCFp/+fgEQgXh4yvA9+rzhRoiPj4+vvZ88XxgrBPWXz4+gVBB+Pgq9sUV3/8FQw0bHx8fXxu+Nc8HWn/5+ARCBeHjq8w3Fww1bHx8fHxt+Ky/fHx8AiEfH9+vN5Jq2Pj4+Pjq88V6kX9bf/n4+ARCPj6+X7eS5htJNWx8fHx89fisv3x8fAIhHx/fWz4NGx8fH1/ZPusbHx+fQMjHx7fJp2Hj4+PjK8dnfePj43s7EPoA+fj45nyvHlehAeTj4+M73hfzcxwZ4dxAPj6+LUMg5OPjW/TlcRVxYPHacKhh4+Pj49vft+UAeesbHx+fQMjHx/e2L5qPuBr9ajDUUPLx8fHtMyIExgvAtoRA6xsfH59AyMfHt4svg6GGjY+Pj+9zPusbHx+fQOgLw8d3ed/Sc4YaSj4+Pr593g5qfePj4xMI+fj4Lu2b2jXUUPLx8fG9d3C89Y2Pj08g9IXh4yvWF8+5xK6hhpKPj4/v/RBofePj4xMIfWH4+Ir3DRsfDSUfH1+rvr7vrR98fHwCoYLw8bXr01Dy8fG15lu7C2j94OPjEwgVhI+vet+WHUMNLx8f39V9cbt8HBGxVxC0fvDx8QmEfHx8Vfq6rlu9e6jh5ePju5ovA+D4jEDrBx8fn0CoIHx8fC/+v8NwuBQQNbx8fHxX8M2FQOsHHx+fQKggfHx8O/s0vHx8fFfwZQCMs1fNz3x8fAKhgvDx8R3s0/Dy8fEd5YsdwBgZAOd2Ac3PfHx8AqGC8PHxHeiLpux+v39fqdfw8vHx7TkiAMb88uoOoPmZj49PIFQQPj6+k31x9X5LONSQ8/HxmZ/5+PgEQgXh4+OrwBdX9ePqflzl1/Dy8fEthb+pIyHMz3x8fAKhgvDx8VXii1tLX9k91JDz8dXrMz/z8fHxCYR8fHx83+Ewdw/HAVFDzsdXj29p98/8zMfHxycQ8vHx8f0KiBpyPr7yfHkG4NYAaH7m4+Pj+wmEPkA+Pr7WfXu9vVSDz8f3GZ/5j4+Pj+9zPoGQj4+Pb/RneIupl9Tw8R3nG589av7j4+PjEwh9Yfj4+E73LT2HKDDw8a3zrQl95j8+Pj4+gdAXho+P77K+CInDt5kKDHx808/7xe8kf3dd15lf+Pj4+ARCBeHj46vblzsfAgNf7b4IfRn8Yhc9wl/sqptf+Pj4+ARCBeHj4+MbjTVBUaDhu5JvHPxih3wq+Jlf+Pj4+ARCBeHj4+NbMeZCokDDd4Yvv5ex07c29Jlf+Pj4+ARCBeHj4+PbaURD/s7bTgUuvqnR9/0/Fx78fvn4+Pj4BEI+Pj6+wnz5xtMIi/lCm7yVT+Bq2zcOe+PQt/ZlLn6/fHx8fAKhgvDx8fEV5IuwOBUYMzQKXPW8tCVH3tIZw++Dj4+Pj08g5OPj4+Nb9E3tEo2fYfTSm2Oe0cuwHiEvx5bn9vw++Pj4+PgEQj4+Pj6+XX0RIOcOE88Ak8FmePvqcNR6sPrUv5eezRuHcd8/Pj4+Pj6BUEH4+Pj4mruldThiNyzHKy86mXtL69QY77yNb7WcG2lLs/ry8fHx8QmECsLHx8fHx8fHx8fHxycQKggfHx8fHx8fHx8fH59AqCB8fHx8fHx8fHx8fHwCoYLw8fHx8fHx8fHx8fEJhArCx8fHx8fHx8fHx8cnECoIHx8fHx8fHx8fHx+fQKggfHx8fHx8fHx8fHx8VwuEPkA+Pj4+Pj4+Pj4+Pr42fQIhHx8fHx8fHx8fHx+fQKggfHx8fHx8fHx8fHx8AqGC8PHx8fHx8fHx8fHxCYQKwsfHx8fHx8fHx8fHJxAqCB8fHx8fHx8fHx8fn0CoIHx8fHx8fHx8fHx8fAKhgvDx8fHx8fHx8fHx8QmECsLHx8fHx8fHx8fHxycQKggfHx8fHx8fHx8fH59AqCB8fHx8fHx8fHx8fHwCoYLw8fHx8fHx8fHx8fEJhArCx8fHx8fHx8fHx8cnECoIHx8fHx8fHx8fHx+fQKggfHx8fHx8fHx8fHx8AqEvDB8fHx8fHx8fHx8fn0DIx8fHx8fHx8fHx8fHJxDy8fHx8fHx8fHx8fHxCYR8fHx8fHx8fHx8fHx8AiEfHx8fHx8fHx8fHx/f+kDoA+Tj4+Pj4+Pj4+Pj42vTJxDy8fHx8fHx8fHx8fEJhArCx8fHx8fHx8fHx8cnECoIHx8fHx8fHx8fHx+fQKggfHx8fHx8fHx8fHx8AqGC8PHx8fHx8fHx8fHxCYQKwsfHx8fHx8fHx8fHJxAqCB8fHx8fHx8fHx8fn0CoIHx8fHx8fHx8fHx8fAKhgvDx8fHx8fHx8fHx8QmECsLHx8fHx8fHx8fHxycQKggfHx8fHx8fHx8fH59AqCB8fHx8fHx8fHx8fHzn+v4C0c8zwDluRFMAAAAASUVORK5CYII=;" parent="1" vertex="1">
          <mxGeometry x="815.3499999999999" y="-144" width="68.91" height="50" as="geometry" />
        </mxCell>
        <mxCell id="B3mEiUVaiHjRlC54vuDs-85" value="" style="shape=image;verticalLabelPosition=bottom;labelBackgroundColor=default;verticalAlign=top;aspect=fixed;imageAspect=0;image=data:image/png,iVBORw0KGgoAAAANSUhEUgAAARwAAACxCAMAAAAh3/JWAAAAt1BMVEX///8AlTkBljqHxpkAkCYAlTcAkSz///4AkjNhs3bP6dmn1rYAkzYAljcAjyz///1XsnAun04AjiD//f8AjyhPrmoAlDAAjhwAkikDlDzm9+u638cAkiT6//uQyqPu/PGcz63Y7uBvu4bL6tUypVoWmkWPyJ15voyz3cBUsHXt+PTB4tDb8eVjt4Cr27gfnkxIpWY8qGCt07SPx6Gz2cRfsnwrnFR4vZDR6uDV8Nmh1q/G5NdqtYN+XvvlAAAP6ElEQVR4nO2djXabOBOGkYyAxMhOKCbIP4nj2HHiJHW8/brd7fb+r+vjH0mMBE7TWnb67jlbYgNGDzOj0SDAssyR67qWe+iDMFUZmOGhj8JUjfv920Mfg5FyrU3PcRx7Mc7964949fGAIkQG/rVl/Qk9tZI4c7e0fcQQQpSEq4dDH5A5StCMzwIPIVyIBqPbP8ZTaHYfeYhilOJJ/ocYiZz15tBHdXBl1vGwinFOJbMdhFNGMZoPrY+d9iRtPx8FBPNwMj4YE/ty8qHZWNbNIoiQKFz8y6Lg8fnQx3dIXQ8cUtEo4RRmRBmKgvUssZ4PmTRPVk4kkeHgZHKi/qGP8iC6fbT9GgOuyIic0HT5dOgj/e3arMMs2BDBdMpMpwzPKTTPPktGFNanQx/xb1LSzjmOpfgrwsFVv44Ri53e7NDH/Pv0dDklgo2UaFDVlZeg8sgcf4wRhTu0ni8CvxGGQb+qRezluXX6Q4qb9UDObEQwvCFxX0b2y/jQx/5LlZz4PnMwIl3gSOaDURRdn2zoSQtYd7vQb+LAop3wiIrl/AM/3Kah5xR9y7XGX/OxAuYl/SWAa1iUd7U7zTrqrBdGUtTdG06Cx17cZMZzKvYzHCYt+YynUoonQ5D8rEp0RC9DsXd96Aa9p9LCxM5m8gjzTcIMIXv7dEKXcMY/Qk/RRcltF0I0kPDgZLxBPXt0KqFndo3iTmSQkATC2WDxmeN8O4k66mTl5NcVkJTXIfVniE9zoCiNSUyPvJiRBpvXgDaaVodaNRzIpiqahCR47L+Pu5hxswg8JCV07wEnlz894jrqbB5FrNk4rsFqEjwU1VqERXHvSEPPZGv7KQBcUOBzPoGCYE8AKZlXBSyNzOxz0q0fVUaYJCG3FzbNL0Hhun18maZqch1lNXDk7LlYoti3d3dHlvXM1mFEud5YbraYy4jfVl8Jf1RgUU07l2efHYtvDYdDy51HTjOzwYDy1texlrMoOeERMNWelv7pTdM6qmu8d6XHN7kckLasTxNn+aZ3FHXwZ+sYBqO3j4lH4d8KJ9kZDXfnh265XsmZ2/QcRRWUb0rZcdW5j5AMib2X7Ijg7pLQEy4Mr6P2cUhbjaazRey3A+r4htZRM3e/W04pfOB8034ejnI0Zq8mhwah0PglIFipugW1VwHf5R31G5UkzcHrrYFxedYbOPAYAcsLSO1aUGgRQep/AbPIXpiU9WTpxedt3JhMouJQWIhoNMLKwFhVgTQP2fXqiVs79Lsxvbo7TKugA0rlQ1aKh8MNLOAVhW8YY401mnvOJoWZMqKYLaY+pb5IBQuLibyB4wwGno/KPlxqkowDaDd1wtAZ+I2RiHRxNOm4wrObQ1MptLDh6TWlaDo8DHfr+V/9L4tLO/RQmiNiDJJUikbB8lv/r/l6GaRTnkpDbUYhltJydoemkskdD6rMBm4kJvFqXp3JzcPIjlHjmkwrG/ulLKrfXgQRLf2rCSe3vuDuQDxE3U35gwLiL7Gl+TXPi5DqaTT2Q71JHmWzUPLgqdLw6hBCM0rM5zZ0BnHZQkbT4+R7j2T5aRW1p4s1mcSnREN4shVgqj+MgyMcaQUnmMs9a3L2ZyOnOxyE7M/SLuYAHSGKmQQHdqhU0aiRdWSVl4uoTupUyV35qffa6Jp3nj6RdEyBA+av5d/Bf4rtLuG4AYDCQXPI9L9A75cmWQ7XErGdiKm2G7OuYYeQ5ohgZpPqR/hzUSYVRwHHe9Ft2AkPJlDSsvWJGo5BbqWr4Dg91XZDq3+FgBSnGXy8M2DzCw/62YrUwBQ4tZ00D1YNx3Wtno1VG3LNxWo4mB94Yr5waIzlvA3OMPnv65TRXwPHGMvRuJUGTqrZMuowcWcPt6pkDBzVwCELjDo4btJl+XJQrkNr+a8KTiN9qLY3CY7acNrgWOcDwtW6YP/Swck2a/ysQXB05q13q0QPAaJMvBizLxxIpuU5GOp62uC41r0Et+koHWJOw7NMg4Mgv2iDkwyzzmKs9Khsp9reqjluyY7DQLfaH06qpMt6TzgZHWPgqHurtq48lWvdrAiqHFLYUf6Z1q3kUnPxgTFwICglrS6WY916VIkX6QKy0tjMsZyfhmNNAp1f6eAoNjIHji797wRnaF0HMttqSe9Wql82Bg6RGsQXrLpZjmX9mLIqdIkpYWuGzNlpvaUxcOQzzoWPDgG50E49r+cNYytz4NRH+RNwNitla4964CmcMikIdIZjnStNZ1846TEYkyHDJbnciDrDca1Jek8WH0UwzoOINiDzORa3aAwc+Oyp4bjQLQvJCH1+VW0oxOaucHhOhlUCYYFwLhXzi37EDOqau7iV3NUZE3OgNKf8CHSr1U7x4I5dxICk6agDsjTuE0aDIJxL+ys892qz9TAj8p70eQ74u+Z05ZqDVMDxA0Wcfo6k2SXtcDDExhw4RIyF7W51ieiV4rkmE4fyRpj9vy0gNyOPQXBApy9oKSyHkhCaju+6eZclpkuRvmRRWamRMecNcBDyqWI2/jqQ4bTUc8yGA3YbWFOySOEg7xKcjO9aowG3fSschYyBA5y4Sgo4ScNofAHdgOhas2JyCi4vfO8Px6CYo2GjgcNIqOiyxvmcuKofOupRuRgiMH/9WgeHErjLGlpPoqe2wCn6J/EUGQSHrzeJPbqqt8oz/fAOTpX7QfkMgw5woEtdZsFRWLfactLGsIiN4VS5V1xjboPTvE5+MnCSdi8V94+dObSE0zoFxWg4hc/LPqXLcyqXcB4t6xPQZ822XrWfvYtdyKB6zt7T3jg4zP4G3+AyplVLlWOr+iw08kBj4GjYtMIh6ApoRvoM7fOwdCzV8EEDx5xpb7pZa21wkmQwUDzqpR/mA/T93MrAUXl1WNVSZziMRoqyac/OO/SOcIRzZAwcVJj/2yyHsOhvRdn06zS7saot5kAyCs7+Yyt+pQt417NlRDsEZEimBWSZj/rSjAwHJV0WINfasEhjOfmPwohMgwOYj2LCZAMOCvpwpnxut8BRySi3QuBp7AxHedthegvAKcDBGDBy9cCzyqmzJeooHk52b3cZlTeSQGPg/EyGXJmOt9q4YKr81WmDI5iqaXB05t3VrVB2Sx8kdxnuAcc4y4F6jNLI9XAw713hAv6BjaPvyqVLOcbB4QpxEiltzOGCTrLM7Gv4IRT/XAAfN/IcLMgYOLWd8HExX1TC4TCW/9JgAo/QnwFk0uVgjE8LTn0/SBUwYvCVaEMLeAPhEcERXR7XNXYYDqH8/MZa0fam6+NL0oAs/KJIyRg4YqVbbK4Ojny2E8WjWcdn34iTl7DBMWdfONkdaAAbjFRdVkPHB4fHpIUDFMeLzYKOz58fedr7ro2B8x4ZciVy1e2JbccChz/xfC+E1L0VkXu1ag8Me/90+dlRHpDB9NNsOHWz2wae0nXcdJGuujxTaiTeaSPMu0MmziZtnseuJQtuIIFQ/NqhwxrlGTJoPCbBIdx0M1latxKtpu554h/tD7MrLUchg9zqfeDUU7PD+3Y4/rHAqZtWtbOLWykr5CRofU/cqK4EChf3imVj4Ag2gIXpOfo8p2E9Vd5Mwn9bxhFcVy7ZHzLLcvaH08hoy2blnzNM2Y3es2Q4yFQ40oHxh6qahyzi5NP/woK8nf7hxhIc7rexuW4lTUNRwJFmZQEig68WXFTOlcGRT0W9P2PgAAZTtVkBp1yd4yp5GWXTni7sjLK7gwXrM9JyyN5w/AYQsX3pHmh6pU+tUXHrdBMOMgoO0mignKQNSXQREt6pk8HG2Eo8P8ZkyEKskXKXCHja24ZS2cgkeytEvbHSs1ZURlLtJrNYU+AIZ12CQ7by+q71r90IoSAcRKO/Z1D9OCF2ExQzmxRwTHMrqYRcKJBffze0vji6ySMCX/CSVQp47gBv6OFkEBwsn/26obHkV+m8El+wEwWhvO32Ggw7mxWV1pZ2ZRAc6Rj59rIkqlatSxIX11qUhgNikdhieyHTSf960T4U10C3UtkC5edPDK3vg+oR4Uo4fLiOd8+NbHAd6tiYBgeqVpZLPuPn3syDllcYyXSYP12LcwZvHkOm3ke+vUlwOG8QSsNZgkbCdXlX3t1rAJNUhJ58EDsYvEyq0un43osQ1483d5V5Y2vN43fIna08CA5vASS6Wva+f5+/rIJIenODspEVnOyryA6XL/fz+ZeXbRAraxXVz2MSG/LKoifbqyvrcDsJI47jxB5jWKjf5U2vExSuhcIa6fwdGg3COGaJ0WDKYahHHvWZwV4wN+WlIbcXARGCAICIiN/Wi6DBKKWLbYUYQ/bSjBcb5Jpsp80nSygbyH0HroXVfwFw5A+og80IxoVca3btDRpT2bRJHgwN2KJwvA67ydbxnLRvM+RNM6U2iyufMaGIJS+J+YsCT/PrzogJxuTq0cy3dd8ug+IRrBgS30yut6+YQOspdwYrCramvhrNsh5WMTkMnLxMgeepixvmUoWS0HPvOah85SBWus/ekilzDliQRTgafFPcTWuMxi82odoI0bAKYA2JSgd8NByZGWwqZQZ9t7S1M2eE5naC04FNvDJiuNBBfTZlEgD+QgHCb3wzWrkXmTWKnY7TwQ6vYRJ67Kj9ofxiA9tXUa3jBT9aro6ao+wwx2e2h/knqyouEzTNgA+7/DeNfRRLxB6Bk5eN1t2yuvVZMg6x09kLDr+P7F8abo8l2HBKYvN37GChzULD+FG8Ekm9sbhUfhF5PTNfF9yixNBvFmFEsJzpAAMDuXcHEBXfcZc4EKb2oyFVm/2VGM/zKIzk11DLcNDb4CASLjUXRI1X+tCpyeUUbKXAQwFCu2GYvdx+aOZYobOuSfq0l5acGfwY4pItMuQNjjPYiBqmxYzQazYfC+2GvpCqXJy1+fbZ8xF7VK20Cee75oiC76LUXRawEvLDtDABPCjuWDVZxdBlh72FKYs9o6qg76IvjrPPiEKlaPrtBIKNqKRXSbKe9ALXmwmlj/mK7EfFvflHr/NdSDBrZDZcZEFCkVAMQixJ+gyugv68HlYhf/ENwV082LVjFPvXpxOEIc16g/RV7ATp4cgOlXwW2QtT3l7/i+SmxYyAJFlc0zzUQ0/EmB+8Hl9hYk9l75u+W05b3uUuy7ePsTCxv7KT32dxs8wMVnhSWyKOdz07dbPhdNOLGvPWGsWL4sNo+nK0hYk3yP1kWc8XoWqmtiAS7tKHtX8Ys0mVFTNCAqWE9bWJhF6MP0SwAfTdc4ArXDUc6oT3JzdW6KiZtVmHXoWES4/zj7wgCTbwa1c+hp5HU5/PBMuxBcPMXv536KM7uCaXtlQoTDssGps1Petguo4cIg1D8+lZnz6yT5VKixmsTHAYwjQ42cLEW3S+C4uneGFKplvFA5I/rB62Icmq6A6apy/kOfJLLu+s2bUXRZ4zWJ94YeItSosZPxh7vP1YI4VuypDMZtXiHxmu/wMRFt09T+uqxQAAAABJRU5ErkJggg==;" parent="1" vertex="1">
          <mxGeometry x="816.8000000000001" y="-70" width="70.6" height="44" as="geometry" />
        </mxCell>
        <mxCell id="B3mEiUVaiHjRlC54vuDs-87" value="1. Wireguard&lt;br&gt;2. vSwitch&lt;br&gt;3. Telemetrics&lt;br&gt;4. Logs&lt;br&gt;&lt;div style=&quot;&quot;&gt;&lt;span style=&quot;background-color: initial;&quot;&gt;5. Proxy&amp;nbsp;&lt;/span&gt;&lt;/div&gt;&lt;div style=&quot;&quot;&gt;&lt;span style=&quot;background-color: initial;&quot;&gt;&amp;nbsp; &amp;nbsp; - RPC&lt;/span&gt;&lt;/div&gt;&lt;div style=&quot;&quot;&gt;&lt;span style=&quot;background-color: initial;&quot;&gt;&amp;nbsp; &amp;nbsp; - API&lt;/span&gt;&lt;/div&gt;&lt;div style=&quot;&quot;&gt;&lt;span style=&quot;background-color: initial;&quot;&gt;&amp;nbsp; &amp;nbsp; - GRPC&lt;/span&gt;&lt;/div&gt;&lt;div style=&quot;&quot;&gt;&lt;span style=&quot;background-color: initial;&quot;&gt;&lt;br&gt;&lt;/span&gt;&lt;/div&gt;" style="text;html=1;strokeColor=none;fillColor=none;align=left;verticalAlign=middle;whiteSpace=wrap;rounded=0;fontStyle=1" parent="1" vertex="1">
          <mxGeometry x="471" y="10" width="120" height="150" as="geometry" />
        </mxCell>
        <mxCell id="B3mEiUVaiHjRlC54vuDs-91" style="edgeStyle=orthogonalEdgeStyle;rounded=0;orthogonalLoop=1;jettySize=auto;html=1;startArrow=classic;startFill=1;entryX=1;entryY=0.5;entryDx=0;entryDy=0;entryPerimeter=0;" parent="1" source="B3mEiUVaiHjRlC54vuDs-89" edge="1" target="B3mEiUVaiHjRlC54vuDs-75">
          <mxGeometry relative="1" as="geometry">
            <mxPoint x="930" y="30" as="targetPoint" />
          </mxGeometry>
        </mxCell>
        <mxCell id="76S1xJXIV5P6KouuZEVB-11" style="edgeStyle=orthogonalEdgeStyle;rounded=0;orthogonalLoop=1;jettySize=auto;html=1;endArrow=none;endFill=0;dashed=1;dashPattern=8 8;" edge="1" parent="1">
          <mxGeometry relative="1" as="geometry">
            <mxPoint x="1350" y="-190" as="targetPoint" />
            <mxPoint x="1350" y="-40" as="sourcePoint" />
          </mxGeometry>
        </mxCell>
        <mxCell id="B3mEiUVaiHjRlC54vuDs-89" value="" style="image;aspect=fixed;perimeter=ellipsePerimeter;html=1;align=center;shadow=0;dashed=0;spacingTop=3;image=img/lib/active_directory/internet_cloud.svg;" parent="1" vertex="1">
          <mxGeometry x="1250" y="-50" width="222.22" height="140" as="geometry" />
        </mxCell>
        <mxCell id="B3mEiUVaiHjRlC54vuDs-90" value="&lt;b&gt;Public INTERNET&lt;/b&gt;" style="text;html=1;strokeColor=none;fillColor=none;align=center;verticalAlign=middle;whiteSpace=wrap;rounded=0;fontColor=#000000;" parent="1" vertex="1">
          <mxGeometry x="1284.31" y="5" width="140" height="30" as="geometry" />
        </mxCell>
        <mxCell id="B3mEiUVaiHjRlC54vuDs-118" style="edgeStyle=orthogonalEdgeStyle;rounded=0;orthogonalLoop=1;jettySize=auto;html=1;" parent="1" source="B3mEiUVaiHjRlC54vuDs-92" edge="1">
          <mxGeometry relative="1" as="geometry">
            <mxPoint x="1767" y="9.999999999999545" as="targetPoint" />
          </mxGeometry>
        </mxCell>
        <mxCell id="B3mEiUVaiHjRlC54vuDs-92" value="" style="shape=image;verticalLabelPosition=bottom;labelBackgroundColor=default;verticalAlign=top;aspect=fixed;imageAspect=0;image=https://static-00.iconduck.com/assets.00/hetzner-icon-1024x1024-fu4wjwkl.png;" parent="1" vertex="1">
          <mxGeometry x="1700" y="216" width="134" height="134" as="geometry" />
        </mxCell>
        <mxCell id="B3mEiUVaiHjRlC54vuDs-94" value="" style="rounded=1;whiteSpace=wrap;html=1;fillColor=#cce5ff;strokeColor=none;gradientColor=none;gradientDirection=radial;fontColor=#000000;" parent="1" vertex="1">
          <mxGeometry x="1345" y="385" width="110" height="315" as="geometry" />
        </mxCell>
        <mxCell id="B3mEiUVaiHjRlC54vuDs-95" value="" style="verticalLabelPosition=bottom;html=1;verticalAlign=top;align=center;strokeColor=none;fillColor=#00BEF2;shape=mxgraph.azure.virtual_machine;fontColor=#000000;" parent="1" vertex="1">
          <mxGeometry x="1375" y="400" width="50" height="40" as="geometry" />
        </mxCell>
        <mxCell id="B3mEiUVaiHjRlC54vuDs-96" value="" style="verticalLabelPosition=bottom;html=1;verticalAlign=top;align=center;strokeColor=none;fillColor=#00BEF2;shape=mxgraph.azure.virtual_machine;fontColor=#000000;" parent="1" vertex="1">
          <mxGeometry x="1375" y="480" width="50" height="40" as="geometry" />
        </mxCell>
        <mxCell id="B3mEiUVaiHjRlC54vuDs-97" value="" style="verticalLabelPosition=bottom;html=1;verticalAlign=top;align=center;strokeColor=none;fillColor=#00BEF2;shape=mxgraph.azure.virtual_machine;fontColor=#000000;" parent="1" vertex="1">
          <mxGeometry x="1375" y="560" width="50" height="30" as="geometry" />
        </mxCell>
        <mxCell id="B3mEiUVaiHjRlC54vuDs-98" value="" style="verticalLabelPosition=bottom;html=1;verticalAlign=top;align=center;strokeColor=none;fillColor=#00BEF2;shape=mxgraph.azure.virtual_machine;fontColor=#000000;" parent="1" vertex="1">
          <mxGeometry x="1375" y="628" width="50" height="40" as="geometry" />
        </mxCell>
        <mxCell id="B3mEiUVaiHjRlC54vuDs-100" value="" style="rounded=1;whiteSpace=wrap;html=1;fillColor=#cce5ff;strokeColor=none;gradientColor=none;gradientDirection=radial;fontColor=#000000;" parent="1" vertex="1">
          <mxGeometry x="1480" y="385" width="110" height="315" as="geometry" />
        </mxCell>
        <mxCell id="B3mEiUVaiHjRlC54vuDs-101" value="" style="verticalLabelPosition=bottom;html=1;verticalAlign=top;align=center;strokeColor=none;fillColor=#00BEF2;shape=mxgraph.azure.virtual_machine;fontColor=#000000;" parent="1" vertex="1">
          <mxGeometry x="1510" y="400" width="50" height="40" as="geometry" />
        </mxCell>
        <mxCell id="B3mEiUVaiHjRlC54vuDs-102" value="" style="verticalLabelPosition=bottom;html=1;verticalAlign=top;align=center;strokeColor=none;fillColor=#00BEF2;shape=mxgraph.azure.virtual_machine;fontColor=#000000;" parent="1" vertex="1">
          <mxGeometry x="1510" y="480" width="50" height="40" as="geometry" />
        </mxCell>
        <mxCell id="B3mEiUVaiHjRlC54vuDs-103" value="" style="verticalLabelPosition=bottom;html=1;verticalAlign=top;align=center;strokeColor=none;fillColor=#00BEF2;shape=mxgraph.azure.virtual_machine;fontColor=#000000;" parent="1" vertex="1">
          <mxGeometry x="1510" y="560" width="50" height="30" as="geometry" />
        </mxCell>
        <mxCell id="B3mEiUVaiHjRlC54vuDs-104" value="" style="verticalLabelPosition=bottom;html=1;verticalAlign=top;align=center;strokeColor=none;fillColor=#00BEF2;shape=mxgraph.azure.virtual_machine;fontColor=#000000;" parent="1" vertex="1">
          <mxGeometry x="1510" y="628" width="50" height="40" as="geometry" />
        </mxCell>
        <mxCell id="B3mEiUVaiHjRlC54vuDs-106" value="" style="rounded=1;whiteSpace=wrap;html=1;fillColor=#cce5ff;strokeColor=none;gradientColor=none;gradientDirection=radial;fontColor=#000000;" parent="1" vertex="1">
          <mxGeometry x="1620" y="385" width="110" height="315" as="geometry" />
        </mxCell>
        <mxCell id="B3mEiUVaiHjRlC54vuDs-107" value="" style="verticalLabelPosition=bottom;html=1;verticalAlign=top;align=center;strokeColor=none;fillColor=#00BEF2;shape=mxgraph.azure.virtual_machine;fontColor=#000000;" parent="1" vertex="1">
          <mxGeometry x="1650" y="400" width="50" height="40" as="geometry" />
        </mxCell>
        <mxCell id="B3mEiUVaiHjRlC54vuDs-108" value="" style="verticalLabelPosition=bottom;html=1;verticalAlign=top;align=center;strokeColor=none;fillColor=#00BEF2;shape=mxgraph.azure.virtual_machine;fontColor=#000000;" parent="1" vertex="1">
          <mxGeometry x="1650" y="480" width="50" height="40" as="geometry" />
        </mxCell>
        <mxCell id="B3mEiUVaiHjRlC54vuDs-109" value="" style="verticalLabelPosition=bottom;html=1;verticalAlign=top;align=center;strokeColor=none;fillColor=#00BEF2;shape=mxgraph.azure.virtual_machine;fontColor=#000000;" parent="1" vertex="1">
          <mxGeometry x="1650" y="560" width="50" height="30" as="geometry" />
        </mxCell>
        <mxCell id="B3mEiUVaiHjRlC54vuDs-110" value="" style="verticalLabelPosition=bottom;html=1;verticalAlign=top;align=center;strokeColor=none;fillColor=#00BEF2;shape=mxgraph.azure.virtual_machine;fontColor=#000000;" parent="1" vertex="1">
          <mxGeometry x="1650" y="628" width="50" height="40" as="geometry" />
        </mxCell>
        <mxCell id="B3mEiUVaiHjRlC54vuDs-111" value="&lt;b&gt;&lt;font style=&quot;font-size: 17px;&quot;&gt;VDS TESTNET&lt;/font&gt;&lt;/b&gt;" style="text;html=1;strokeColor=none;fillColor=none;align=center;verticalAlign=middle;whiteSpace=wrap;rounded=0;fontColor=#000000;" parent="1" vertex="1">
          <mxGeometry x="1510" y="232" width="220" height="30" as="geometry" />
        </mxCell>
        <mxCell id="B3mEiUVaiHjRlC54vuDs-114" style="edgeStyle=orthogonalEdgeStyle;rounded=0;orthogonalLoop=1;jettySize=auto;html=1;entryX=0.998;entryY=0.414;entryDx=0;entryDy=0;entryPerimeter=0;startArrow=classic;startFill=1;" parent="1" source="B3mEiUVaiHjRlC54vuDs-93" target="B3mEiUVaiHjRlC54vuDs-40" edge="1">
          <mxGeometry relative="1" as="geometry" />
        </mxCell>
        <mxCell id="B3mEiUVaiHjRlC54vuDs-116" value="1. Wireguard&lt;br&gt;2. vSwitch" style="text;html=1;strokeColor=none;fillColor=none;align=left;verticalAlign=middle;whiteSpace=wrap;rounded=0;fontStyle=1" parent="1" vertex="1">
          <mxGeometry x="1080" y="488" width="120" height="150" as="geometry" />
        </mxCell>
        <mxCell id="76S1xJXIV5P6KouuZEVB-25" style="edgeStyle=orthogonalEdgeStyle;rounded=0;orthogonalLoop=1;jettySize=auto;html=1;startArrow=classic;startFill=1;" edge="1" parent="1" source="B3mEiUVaiHjRlC54vuDs-119" target="76S1xJXIV5P6KouuZEVB-24">
          <mxGeometry relative="1" as="geometry" />
        </mxCell>
        <mxCell id="B3mEiUVaiHjRlC54vuDs-119" value="" style="image;aspect=fixed;perimeter=ellipsePerimeter;html=1;align=center;shadow=0;dashed=0;spacingTop=3;image=img/lib/active_directory/internet_cloud.svg;" parent="1" vertex="1">
          <mxGeometry x="1650" y="-40" width="222.22" height="140" as="geometry" />
        </mxCell>
        <mxCell id="B3mEiUVaiHjRlC54vuDs-120" value="&lt;b&gt;INTERNET&lt;/b&gt;" style="text;html=1;strokeColor=none;fillColor=none;align=center;verticalAlign=middle;whiteSpace=wrap;rounded=0;fontColor=#000000;" parent="1" vertex="1">
          <mxGeometry x="1684.31" y="15" width="140" height="30" as="geometry" />
        </mxCell>
        <mxCell id="76S1xJXIV5P6KouuZEVB-2" value="only p2p" style="edgeLabel;html=1;align=center;verticalAlign=middle;resizable=0;points=[];fontStyle=1" vertex="1" connectable="0" parent="1">
          <mxGeometry x="1260.0000043636367" y="170.0000000000053" as="geometry">
            <mxPoint x="531" y="-17" as="offset" />
          </mxGeometry>
        </mxCell>
        <mxCell id="76S1xJXIV5P6KouuZEVB-6" value="Web, EndPoint Public (RPC,GRPC, API)" style="text;html=1;strokeColor=none;fillColor=none;align=center;verticalAlign=middle;whiteSpace=wrap;rounded=0;fontStyle=1" vertex="1" parent="1">
          <mxGeometry x="1020" y="-20" width="150" height="30" as="geometry" />
        </mxCell>
        <mxCell id="76S1xJXIV5P6KouuZEVB-9" style="edgeStyle=orthogonalEdgeStyle;rounded=0;orthogonalLoop=1;jettySize=auto;html=1;" edge="1" parent="1" source="76S1xJXIV5P6KouuZEVB-8" target="B3mEiUVaiHjRlC54vuDs-81">
          <mxGeometry relative="1" as="geometry">
            <Array as="points">
              <mxPoint x="1353" y="-195" />
            </Array>
          </mxGeometry>
        </mxCell>
        <mxCell id="76S1xJXIV5P6KouuZEVB-10" value="SSH Access Via Wireguard" style="edgeLabel;html=1;align=center;verticalAlign=middle;resizable=0;points=[];fontStyle=1" vertex="1" connectable="0" parent="76S1xJXIV5P6KouuZEVB-9">
          <mxGeometry x="0.2377" y="-3" relative="1" as="geometry">
            <mxPoint y="-12" as="offset" />
          </mxGeometry>
        </mxCell>
        <mxCell id="76S1xJXIV5P6KouuZEVB-8" value="Admin" style="sketch=0;html=1;dashed=0;whitespace=wrap;fillColor=#2875E2;strokeColor=#ffffff;points=[[0.005,0.63,0],[0.1,0.2,0],[0.9,0.2,0],[0.5,0,0],[0.995,0.63,0],[0.72,0.99,0],[0.5,1,0],[0.28,0.99,0]];verticalLabelPosition=bottom;align=center;verticalAlign=top;shape=mxgraph.kubernetes.icon;prIcon=user" vertex="1" parent="1">
          <mxGeometry x="1290" y="-393" width="125" height="100" as="geometry" />
        </mxCell>
        <mxCell id="76S1xJXIV5P6KouuZEVB-12" value="-" style="group" vertex="1" connectable="0" parent="1">
          <mxGeometry x="950" y="230" width="222.22000000000003" height="167" as="geometry" />
        </mxCell>
        <mxCell id="B3mEiUVaiHjRlC54vuDs-66" value="" style="image;aspect=fixed;perimeter=ellipsePerimeter;html=1;align=center;shadow=0;dashed=0;spacingTop=3;image=img/lib/active_directory/internet_cloud.svg;" parent="76S1xJXIV5P6KouuZEVB-12" vertex="1">
          <mxGeometry width="222.22" height="140" as="geometry" />
        </mxCell>
        <mxCell id="B3mEiUVaiHjRlC54vuDs-64" value="" style="verticalLabelPosition=bottom;sketch=0;html=1;fillColor=#A153A0;strokeColor=#ffffff;verticalAlign=top;align=center;points=[[0,0.5,0],[0.125,0.25,0],[0.25,0,0],[0.5,0,0],[0.75,0,0],[0.875,0.25,0],[1,0.5,0],[0.875,0.75,0],[0.75,1,0],[0.5,1,0],[0.125,0.75,0]];pointerEvents=1;shape=mxgraph.cisco_safe.compositeIcon;bgIcon=mxgraph.cisco_safe.design.blank_device;resIcon=mxgraph.cisco_safe.design.secure_dns;" parent="76S1xJXIV5P6KouuZEVB-12" vertex="1">
          <mxGeometry x="110" y="122" width="50" height="45" as="geometry" />
        </mxCell>
        <mxCell id="B3mEiUVaiHjRlC54vuDs-65" value="" style="editableCssRules=.*;html=1;shape=image;verticalLabelPosition=bottom;labelBackgroundColor=#ffffff;verticalAlign=top;aspect=fixed;imageAspect=0;image=data:image/svg+xml,PHN2ZyB4bWxucz0iaHR0cDovL3d3dy53My5vcmcvMjAwMC9zdmciIHhtbG5zOnY9Imh0dHBzOi8vdmVjdGEuaW8vbmFubyIgd2lkdGg9IjE4IiBoZWlnaHQ9IjE4IiB2aWV3Qm94PSIwIDAgMTggMTgiPiYjeGE7CTxzdHlsZSB0eXBlPSJ0ZXh0L2NzcyI+JiN4YTsJLnN0MHtmaWxsOiM0Mjg1ZjQ7fSYjeGE7CTwvc3R5bGU+JiN4YTsJPHBhdGggY2xhc3M9InN0MCIgZD0iTTE2IDBIMmEyIDIgMCAwIDAtMiAydjE0YTIgMiAwIDAgMCAyIDJoMTRhMiAyIDAgMCAwIDItMlYyYTIgMiAwIDAgMC0yLTJ6TTkgNkg1djZoMlY5aDJ2NUg1YTIgMiAwIDAgMS0yLTJWNmEyIDIgMCAwIDEgMi0yaDR6bTYgOGgtMlY2aC0yVjRoNHoiLz4mI3hhOzwvc3ZnPg==;" parent="76S1xJXIV5P6KouuZEVB-12" vertex="1">
          <mxGeometry x="93.11000000000001" y="52" width="36" height="36" as="geometry" />
        </mxCell>
        <mxCell id="B3mEiUVaiHjRlC54vuDs-67" value="&lt;b&gt;GOOGLE DOMAIN&lt;/b&gt;" style="text;html=1;strokeColor=none;fillColor=none;align=center;verticalAlign=middle;whiteSpace=wrap;rounded=0;fontColor=#000000;" parent="76S1xJXIV5P6KouuZEVB-12" vertex="1">
          <mxGeometry x="41.110000000000014" y="88" width="140" height="30" as="geometry" />
        </mxCell>
        <mxCell id="76S1xJXIV5P6KouuZEVB-18" value="DNS" style="text;html=1;strokeColor=none;fillColor=none;align=center;verticalAlign=middle;whiteSpace=wrap;rounded=0;fontStyle=1" vertex="1" parent="1">
          <mxGeometry x="1172.22" y="273.5" width="60" height="30" as="geometry" />
        </mxCell>
        <mxCell id="76S1xJXIV5P6KouuZEVB-19" value="DNS" style="text;html=1;strokeColor=none;fillColor=none;align=center;verticalAlign=middle;whiteSpace=wrap;rounded=0;fontStyle=1" vertex="1" parent="1">
          <mxGeometry x="1050" y="170" width="60" height="30" as="geometry" />
        </mxCell>
        <mxCell id="76S1xJXIV5P6KouuZEVB-20" value="DNS" style="text;html=1;strokeColor=none;fillColor=none;align=center;verticalAlign=middle;whiteSpace=wrap;rounded=0;fontStyle=1" vertex="1" parent="1">
          <mxGeometry x="860" y="322" width="60" height="30" as="geometry" />
        </mxCell>
        <mxCell id="76S1xJXIV5P6KouuZEVB-21" value="Other Validator Blockchain" style="image;aspect=fixed;html=1;points=[];align=center;fontSize=12;image=img/lib/azure2/blockchain/Azure_Blockchain_Service.svg;fontStyle=1" vertex="1" parent="1">
          <mxGeometry x="220" y="90" width="68" height="68" as="geometry" />
        </mxCell>
        <mxCell id="76S1xJXIV5P6KouuZEVB-22" style="edgeStyle=orthogonalEdgeStyle;rounded=0;orthogonalLoop=1;jettySize=auto;html=1;entryX=0;entryY=0.456;entryDx=0;entryDy=0;entryPerimeter=0;startArrow=classic;startFill=1;" edge="1" parent="1" source="B3mEiUVaiHjRlC54vuDs-56" target="76S1xJXIV5P6KouuZEVB-21">
          <mxGeometry relative="1" as="geometry" />
        </mxCell>
        <mxCell id="76S1xJXIV5P6KouuZEVB-23" value="only p2p" style="edgeLabel;html=1;align=center;verticalAlign=middle;resizable=0;points=[];fontStyle=1" vertex="1" connectable="0" parent="1">
          <mxGeometry x="35.00000436363662" y="185.0000000000053" as="geometry">
            <mxPoint x="126" y="-45" as="offset" />
          </mxGeometry>
        </mxCell>
        <mxCell id="76S1xJXIV5P6KouuZEVB-24" value="Other Validator Blockchain" style="image;aspect=fixed;html=1;points=[];align=center;fontSize=12;image=img/lib/azure2/blockchain/Azure_Blockchain_Service.svg;fontStyle=1" vertex="1" parent="1">
          <mxGeometry x="1990" y="-4" width="68" height="68" as="geometry" />
        </mxCell>
        <mxCell id="76S1xJXIV5P6KouuZEVB-26" value="only p2p" style="edgeLabel;html=1;align=center;verticalAlign=middle;resizable=0;points=[];fontStyle=1" vertex="1" connectable="0" parent="1">
          <mxGeometry x="1400.0000043636367" y="35.000000000005286" as="geometry">
            <mxPoint x="531" y="-17" as="offset" />
          </mxGeometry>
        </mxCell>
        <mxCell id="B3mEiUVaiHjRlC54vuDs-72" value="" style="shape=image;verticalLabelPosition=bottom;labelBackgroundColor=default;verticalAlign=top;aspect=fixed;imageAspect=0;image=https://static-00.iconduck.com/assets.00/hetzner-icon-1024x1024-fu4wjwkl.png;" parent="1" vertex="1">
          <mxGeometry x="860" y="-410" width="134" height="134" as="geometry" />
        </mxCell>
      </root>
    </mxGraphModel>
  </diagram>
</mxfile>
